ffmpeg started on 2026-01-10 at 14:01:46
Report written to "D:\Convert\FFMetrics\reports\ssim_report-6.txt"
Log level: 32
Command line:
ffmpeg -hide_banner -nostdin -r 24000/1001 -i "F:\\\xc0\xed\xe8\xec\xe5\\\xce\xed\xe3\xee\xe8\xed\xe3\xe8\\!_37_\xc7\xe8\xec\xe0_2025\\JamClub\\\xc4\xee\xea\xf2\xee\xf0 \xd1\xf2\xee\xf3\xed\\\xd2\xc2-4\\JamClub_Dr_Stone_Science_Future_03_1080p_HEVC(71).mkv" -r 24000/1001 -i "F:\\\xc0\xed\xe8\xec\xe5\\\xce\xed\xe3\xee\xe8\xed\xe3\xe8\\!_37_\xc7\xe8\xec\xe0_2025\\JamClub\\\xc4\xee\xea\xf2\xee\xf0 \xd1\xf2\xee\xf3\xed\\\xd2\xc2-4\\JamClub_Dr_Stone_Science_Future_03_1080p.mp4" -lavfi "[0:v]settb=AVTB,setpts=PTS-STARTPTS,format=pix_fmts=yuv420p10le,fps=24000/1001,scale=1920:1080:flags=lanczos:param0=3:out_range=limited:out_color_matrix=bt709:out_chroma_loc=left,setsar=1/1,setdar=(1920/1080)*(1/1)[main];[1:v]settb=AVTB,setpts=PTS-STARTPTS,format=pix_fmts=yuv420p,fps=24000/1001,scale=1920:1080:flags=lanczos:param0=3:out_range=limited:out_color_matrix=bt709:out_chroma_loc=left,setsar=1.000,setdar=1.778[ref];[main][ref]ssim=eof_action=endall:stats_file='D\\:/Convert/FFMetrics/logs/ssim_logfile-6.txt'" -f null -
Input #0, matroska,webm, from 'F:\Аниме\Онгоинги\!_37_Зима_2025\JamClub\Доктор Стоун\ТВ-4\JamClub_Dr_Stone_Science_Future_03_1080p_HEVC(71).mkv':
  Metadata:
    COMPATIBLE_BRANDS: mp42mp41
    MAJOR_BRAND     : mp42
    MINOR_VERSION   : 0
    ENCODER         : Lavf61.7.100
  Duration: 00:24:22.17, start: -0.021000, bitrate: 1803 kb/s
  Stream #0:0(eng): Video: hevc (Main 10), yuv420p10le(tv, bt709/unknown/unknown, progressive), 1920x1080 [SAR 1:1 DAR 16:9], 23.98 fps, 23.98 tbr, 1k tbn (default)
      Metadata:
        HANDLER_NAME    : Mainconcept Video Media Handler
        VENDOR_ID       : [0][0][0][0]
        ENCODER         : Lavc61.19.100 libx265
        BPS             : 1605531
        DURATION        : 00:24:22.127708333
        NUMBER_OF_FRAMES: 35056
        NUMBER_OF_BYTES : 293436298
        _STATISTICS_WRITING_APP: mkvpropedit v94.0 ('Initiate') 64-bit
        _STATISTICS_WRITING_DATE_UTC: 2026-01-10 10:40:17
        _STATISTICS_TAGS: BPS DURATION NUMBER_OF_FRAMES NUMBER_OF_BYTES
  Stream #0:1(eng): Audio: aac (LC), 48000 Hz, stereo, fltp (default)
      Metadata:
        HANDLER_NAME    : #Mainconcept MP4 Sound Media Handler
        VENDOR_ID       : [0][0][0][0]
        ENCODER         : Lavc61.19.100 aac
        BPS             : 193637
        DURATION        : 00:24:22.144000000
        NUMBER_OF_FRAMES: 68539
        NUMBER_OF_BYTES : 35390813
        _STATISTICS_WRITING_APP: mkvpropedit v94.0 ('Initiate') 64-bit
        _STATISTICS_WRITING_DATE_UTC: 2026-01-10 10:40:17
        _STATISTICS_TAGS: BPS DURATION NUMBER_OF_FRAMES NUMBER_OF_BYTES
Input #1, mov,mp4,m4a,3gp,3g2,mj2, from 'F:\Аниме\Онгоинги\!_37_Зима_2025\JamClub\Доктор Стоун\ТВ-4\JamClub_Dr_Stone_Science_Future_03_1080p.mp4':
  Metadata:
    major_brand     : mp42
    minor_version   : 0
    compatible_brands: mp42mp41
    creation_time   : 2025-02-16T13:45:21.000000Z
  Duration: 00:24:22.13, start: 0.000000, bitrate: 5181 kb/s
  Stream #1:0[0x1](eng): Video: h264 (Main) (avc1 / 0x31637661), yuv420p(progressive), 1920x1080 [SAR 1:1 DAR 16:9], 4861 kb/s, 23.98 fps, 23.98 tbr, 24k tbn (default)
      Metadata:
        creation_time   : 2025-02-16T13:45:21.000000Z
        handler_name    : Mainconcept Video Media Handler
        vendor_id       : [0][0][0][0]
        encoder         : AVC Coding
  Stream #1:1[0x2](eng): Audio: aac (LC) (mp4a / 0x6134706D), 48000 Hz, stereo, fltp, 317 kb/s (default)
      Metadata:
        creation_time   : 2025-02-16T13:45:21.000000Z
        handler_name    : #Mainconcept MP4 Sound Media Handler
        vendor_id       : [0][0][0][0]
Stream mapping:
  Stream #0:0 (hevc) -> settb:default
  Stream #1:0 (h264) -> settb:default
  ssim:default -> Stream #0:0 (wrapped_avframe)
  Stream #0:1 -> #0:1 (aac (native) -> pcm_s16le (native))
[swscaler @ 0000012e85b86380] No accelerated colorspace conversion found from yuv420p to bgr48le.
[swscaler @ 0000012e85e7b5c0] No accelerated colorspace conversion found from yuv420p to bgr48le.
[swscaler @ 0000012e80bc3700] No accelerated colorspace conversion found from yuv420p to bgr48le.
[swscaler @ 0000012efe014380] No accelerated colorspace conversion found from yuv420p to bgr48le.
[swscaler @ 0000012e88752040] No accelerated colorspace conversion found from yuv420p to bgr48le.
[swscaler @ 0000012e887f2040] No accelerated colorspace conversion found from yuv420p to bgr48le.
[swscaler @ 0000012e88891040] No accelerated colorspace conversion found from yuv420p to bgr48le.
[swscaler @ 0000012e8892e040] No accelerated colorspace conversion found from yuv420p to bgr48le.
[swscaler @ 0000012e8898c1c0] No accelerated colorspace conversion found from yuv420p to bgr48le.
[swscaler @ 0000012e88acd180] No accelerated colorspace conversion found from yuv420p to bgr48le.
[swscaler @ 0000012e88b3f040] No accelerated colorspace conversion found from yuv420p to bgr48le.
[swscaler @ 0000012e88c39040] No accelerated colorspace conversion found from yuv420p to bgr48le.
[swscaler @ 0000012ef1598800] No accelerated colorspace conversion found from yuv420p to bgr48le.
[swscaler @ 0000012e88d93040] No accelerated colorspace conversion found from yuv420p to bgr48le.
[swscaler @ 0000012eedc91e80] No accelerated colorspace conversion found from yuv420p to bgr48le.
[swscaler @ 0000012e88e31fc0] No accelerated colorspace conversion found from yuv420p to bgr48le.
Output #0, null, to 'pipe:':
  Metadata:
    COMPATIBLE_BRANDS: mp42mp41
    MAJOR_BRAND     : mp42
    MINOR_VERSION   : 0
    encoder         : Lavf61.7.100
  Stream #0:0: Video: wrapped_avframe, yuv420p10le(tv, bt709/unknown/unknown, progressive), 1920x1080 [SAR 1:1 DAR 16:9], q=2-31, 200 kb/s, 23.98 fps, 23.98 tbn
      Metadata:
        encoder         : Lavc61.19.100 wrapped_avframe
  Stream #0:1(eng): Audio: pcm_s16le, 48000 Hz, stereo, s16, 1536 kb/s (default)
      Metadata:
        HANDLER_NAME    : #Mainconcept MP4 Sound Media Handler
        VENDOR_ID       : [0][0][0][0]
        _STATISTICS_TAGS: BPS DURATION NUMBER_OF_FRAMES NUMBER_OF_BYTES
        BPS             : 193637
        DURATION        : 00:24:22.144000000
        NUMBER_OF_FRAMES: 68539
        NUMBER_OF_BYTES : 35390813
        _STATISTICS_WRITING_APP: mkvpropedit v94.0 ('Initiate') 64-bit
        _STATISTICS_WRITING_DATE_UTC: 2026-01-10 10:40:17
        encoder         : Lavc61.19.100 pcm_s16le
frame=   24 fps=0.0 q=-0.0 size=N/A time=00:00:01.00 bitrate=N/A speed=1.92x    frame=   62 fps= 59 q=-0.0 size=N/A time=00:00:02.58 bitrate=N/A speed=2.48x    frame=   93 fps= 60 q=-0.0 size=N/A time=00:00:03.87 bitrate=N/A speed= 2.5x    frame=  134 fps= 65 q=-0.0 size=N/A time=00:00:05.58 bitrate=N/A speed=2.69x    frame=  170 fps= 66 q=-0.0 size=N/A time=00:00:07.09 bitrate=N/A speed=2.74x    frame=  205 fps= 66 q=-0.0 size=N/A time=00:00:08.55 bitrate=N/A speed=2.76x    frame=  244 fps= 67 q=-0.0 size=N/A time=00:00:10.17 bitrate=N/A speed=2.81x    frame=  280 fps= 68 q=-0.0 size=N/A time=00:00:11.67 bitrate=N/A speed=2.83x    frame=  317 fps= 68 q=-0.0 size=N/A time=00:00:13.22 bitrate=N/A speed=2.84x    frame=  351 fps= 68 q=-0.0 size=N/A time=00:00:14.63 bitrate=N/A speed=2.84x    frame=  389 fps= 68 q=-0.0 size=N/A time=00:00:16.22 bitrate=N/A speed=2.85x    frame=  424 fps= 68 q=-0.0 size=N/A time=00:00:17.68 bitrate=N/A speed=2.85x    frame=  461 fps= 69 q=-0.0 size=N/A time=00:00:19.22 bitrate=N/A speed=2.87x    frame=  498 fps= 69 q=-0.0 size=N/A time=00:00:20.77 bitrate=N/A speed=2.88x    frame=  536 fps= 69 q=-0.0 size=N/A time=00:00:22.35 bitrate=N/A speed=2.89x    frame=  573 fps= 69 q=-0.0 size=N/A time=00:00:23.89 bitrate=N/A speed=2.89x    frame=  604 fps= 69 q=-0.0 size=N/A time=00:00:25.19 bitrate=N/A speed=2.87x    frame=  648 fps= 70 q=-0.0 size=N/A time=00:00:27.02 bitrate=N/A speed=2.91x    frame=  686 fps= 70 q=-0.0 size=N/A time=00:00:28.61 bitrate=N/A speed=2.92x    frame=  721 fps= 70 q=-0.0 size=N/A time=00:00:30.07 bitrate=N/A speed=2.91x    frame=  760 fps= 70 q=-0.0 size=N/A time=00:00:31.69 bitrate=N/A speed=2.92x    frame=  799 fps= 70 q=-0.0 size=N/A time=00:00:33.32 bitrate=N/A speed=2.93x    frame=  830 fps= 70 q=-0.0 size=N/A time=00:00:34.61 bitrate=N/A speed=2.91x    frame=  870 fps= 70 q=-0.0 size=N/A time=00:00:36.28 bitrate=N/A speed=2.93x    frame=  909 fps= 70 q=-0.0 size=N/A time=00:00:37.91 bitrate=N/A speed=2.94x    frame=  946 fps= 70 q=-0.0 size=N/A time=00:00:39.45 bitrate=N/A speed=2.94x    frame=  982 fps= 70 q=-0.0 size=N/A time=00:00:40.95 bitrate=N/A speed=2.94x    frame= 1021 fps= 71 q=-0.0 size=N/A time=00:00:42.58 bitrate=N/A speed=2.94x    frame= 1058 fps= 71 q=-0.0 size=N/A time=00:00:44.12 bitrate=N/A speed=2.95x    frame= 1094 fps= 71 q=-0.0 size=N/A time=00:00:45.62 bitrate=N/A speed=2.95x    frame= 1125 fps= 70 q=-0.0 size=N/A time=00:00:46.92 bitrate=N/A speed=2.93x    frame= 1170 fps= 71 q=-0.0 size=N/A time=00:00:48.79 bitrate=N/A speed=2.95x    frame= 1197 fps= 70 q=-0.0 size=N/A time=00:00:49.92 bitrate=N/A speed=2.93x    frame= 1241 fps= 71 q=-0.0 size=N/A time=00:00:51.76 bitrate=N/A speed=2.95x    frame= 1275 fps= 71 q=-0.0 size=N/A time=00:00:53.17 bitrate=N/A speed=2.94x    frame= 1319 fps= 71 q=-0.0 size=N/A time=00:00:55.01 bitrate=N/A speed=2.96x    frame= 1357 fps= 71 q=-0.0 size=N/A time=00:00:56.59 bitrate=N/A speed=2.96x    frame= 1380 fps= 70 q=-0.0 size=N/A time=00:00:57.55 bitrate=N/A speed=2.93x    frame= 1421 fps= 71 q=-0.0 size=N/A time=00:00:59.26 bitrate=N/A speed=2.94x    frame= 1470 fps= 71 q=-0.0 size=N/A time=00:01:01.31 bitrate=N/A speed=2.97x    frame= 1503 fps= 71 q=-0.0 size=N/A time=00:01:02.68 bitrate=N/A speed=2.96x    frame= 1544 fps= 71 q=-0.0 size=N/A time=00:01:04.39 bitrate=N/A speed=2.97x    frame= 1582 fps= 71 q=-0.0 size=N/A time=00:01:05.98 bitrate=N/A speed=2.97x    frame= 1612 fps= 71 q=-0.0 size=N/A time=00:01:07.23 bitrate=N/A speed=2.96x    frame= 1650 fps= 71 q=-0.0 size=N/A time=00:01:08.81 bitrate=N/A speed=2.96x    frame= 1693 fps= 71 q=-0.0 size=N/A time=00:01:10.61 bitrate=N/A speed=2.97x    frame= 1731 fps= 71 q=-0.0 size=N/A time=00:01:12.19 bitrate=N/A speed=2.98x    frame= 1766 fps= 71 q=-0.0 size=N/A time=00:01:13.65 bitrate=N/A speed=2.97x    frame= 1800 fps= 71 q=-0.0 size=N/A time=00:01:15.07 bitrate=N/A speed=2.97x    frame= 1841 fps= 71 q=-0.0 size=N/A time=00:01:16.78 bitrate=N/A speed=2.98x    frame= 1880 fps= 71 q=-0.0 size=N/A time=00:01:18.41 bitrate=N/A speed=2.98x    frame= 1917 fps= 71 q=-0.0 size=N/A time=00:01:19.95 bitrate=N/A speed=2.98x    frame= 1956 fps= 71 q=-0.0 size=N/A time=00:01:21.58 bitrate=N/A speed=2.98x    frame= 1987 fps= 71 q=-0.0 size=N/A time=00:01:22.87 bitrate=N/A speed=2.97x    frame= 2023 fps= 71 q=-0.0 size=N/A time=00:01:24.37 bitrate=N/A speed=2.97x    frame= 2068 fps= 72 q=-0.0 size=N/A time=00:01:26.25 bitrate=N/A speed=2.99x    frame= 2098 fps= 71 q=-0.0 size=N/A time=00:01:27.50 bitrate=N/A speed=2.97x    frame= 2138 fps= 71 q=-0.0 size=N/A time=00:01:29.17 bitrate=N/A speed=2.98x    frame= 2182 fps= 72 q=-0.0 size=N/A time=00:01:31.00 bitrate=N/A speed=2.99x    frame= 2220 fps= 72 q=-0.0 size=N/A time=00:01:32.59 bitrate=N/A speed=2.99x    frame= 2256 fps= 72 q=-0.0 size=N/A time=00:01:34.09 bitrate=N/A speed=2.99x    frame= 2293 fps= 72 q=-0.0 size=N/A time=00:01:35.63 bitrate=N/A speed=2.99x    frame= 2326 fps= 72 q=-0.0 size=N/A time=00:01:37.01 bitrate=N/A speed=2.98x    frame= 2363 fps= 72 q=-0.0 size=N/A time=00:01:38.55 bitrate=N/A speed=2.98x    frame= 2407 fps= 72 q=-0.0 size=N/A time=00:01:40.39 bitrate=N/A speed=2.99x    frame= 2441 fps= 72 q=-0.0 size=N/A time=00:01:41.81 bitrate=N/A speed=2.99x    frame= 2481 fps= 72 q=-0.0 size=N/A time=00:01:43.47 bitrate=N/A speed=2.99x    frame= 2519 fps= 72 q=-0.0 size=N/A time=00:01:45.06 bitrate=N/A speed=2.99x    frame= 2553 fps= 72 q=-0.0 size=N/A time=00:01:46.48 bitrate=N/A speed=2.99x    frame= 2592 fps= 72 q=-0.0 size=N/A time=00:01:48.10 bitrate=N/A speed=2.99x    frame= 2630 fps= 72 q=-0.0 size=N/A time=00:01:49.69 bitrate=N/A speed=2.99x    frame= 2665 fps= 72 q=-0.0 size=N/A time=00:01:51.15 bitrate=N/A speed=2.99x    frame= 2705 fps= 72 q=-0.0 size=N/A time=00:01:52.82 bitrate=N/A speed=2.99x    frame= 2742 fps= 72 q=-0.0 size=N/A time=00:01:54.36 bitrate=N/A speed=2.99x    frame= 2778 fps= 72 q=-0.0 size=N/A time=00:01:55.86 bitrate=N/A speed=2.99x    frame= 2810 fps= 72 q=-0.0 size=N/A time=00:01:57.20 bitrate=N/A speed=2.99x    frame= 2852 fps= 72 q=-0.0 size=N/A time=00:01:58.95 bitrate=N/A speed=2.99x    frame= 2889 fps= 72 q=-0.0 size=N/A time=00:02:00.49 bitrate=N/A speed=2.99x    frame= 2929 fps= 72 q=-0.0 size=N/A time=00:02:02.16 bitrate=N/A speed=   3x    frame= 2964 fps= 72 q=-0.0 size=N/A time=00:02:03.62 bitrate=N/A speed=2.99x    frame= 3002 fps= 72 q=-0.0 size=N/A time=00:02:05.20 bitrate=N/A speed=   3x    frame= 3040 fps= 72 q=-0.0 size=N/A time=00:02:06.79 bitrate=N/A speed=   3x    frame= 3075 fps= 72 q=-0.0 size=N/A time=00:02:08.25 bitrate=N/A speed=2.99x    frame= 3113 fps= 72 q=-0.0 size=N/A time=00:02:09.83 bitrate=N/A speed=2.99x    frame= 3137 fps= 72 q=-0.0 size=N/A time=00:02:10.83 bitrate=N/A speed=2.98x    frame= 3186 fps= 72 q=-0.0 size=N/A time=00:02:12.88 bitrate=N/A speed=2.99x    frame= 3224 fps= 72 q=-0.0 size=N/A time=00:02:14.46 bitrate=N/A speed=   3x    frame= 3256 fps= 72 q=-0.0 size=N/A time=00:02:15.80 bitrate=N/A speed=2.99x    frame= 3298 fps= 72 q=-0.0 size=N/A time=00:02:17.55 bitrate=N/A speed=2.99x    frame= 3335 fps= 72 q=-0.0 size=N/A time=00:02:19.09 bitrate=N/A speed=   3x    frame= 3368 fps= 72 q=-0.0 size=N/A time=00:02:20.47 bitrate=N/A speed=2.99x    frame= 3409 fps= 72 q=-0.0 size=N/A time=00:02:22.18 bitrate=N/A speed=   3x    frame= 3446 fps= 72 q=-0.0 size=N/A time=00:02:23.72 bitrate=N/A speed=2.99x    frame= 3483 fps= 72 q=-0.0 size=N/A time=00:02:25.27 bitrate=N/A speed=2.99x    frame= 3519 fps= 72 q=-0.0 size=N/A time=00:02:26.77 bitrate=N/A speed=2.99x    frame= 3554 fps= 72 q=-0.0 size=N/A time=00:02:28.23 bitrate=N/A speed=2.99x    frame= 3591 fps= 72 q=-0.0 size=N/A time=00:02:29.77 bitrate=N/A speed=2.99x    frame= 3629 fps= 72 q=-0.0 size=N/A time=00:02:31.35 bitrate=N/A speed=2.99x    frame= 3666 fps= 72 q=-0.0 size=N/A time=00:02:32.90 bitrate=N/A speed=2.99x    frame= 3702 fps= 72 q=-0.0 size=N/A time=00:02:34.40 bitrate=N/A speed=2.99x    frame= 3741 fps= 72 q=-0.0 size=N/A time=00:02:36.03 bitrate=N/A speed=2.99x    frame= 3771 fps= 72 q=-0.0 size=N/A time=00:02:37.28 bitrate=N/A speed=2.99x    frame= 3814 fps= 72 q=-0.0 size=N/A time=00:02:39.07 bitrate=N/A speed=2.99x    frame= 3847 fps= 72 q=-0.0 size=N/A time=00:02:40.45 bitrate=N/A speed=2.99x    frame= 3883 fps= 72 q=-0.0 size=N/A time=00:02:41.95 bitrate=N/A speed=2.99x    frame= 3924 fps= 72 q=-0.0 size=N/A time=00:02:43.66 bitrate=N/A speed=2.99x    frame= 3960 fps= 72 q=-0.0 size=N/A time=00:02:45.16 bitrate=N/A speed=2.99x    frame= 3993 fps= 72 q=-0.0 size=N/A time=00:02:46.54 bitrate=N/A speed=2.99x    frame= 4033 fps= 72 q=-0.0 size=N/A time=00:02:48.20 bitrate=N/A speed=2.99x    frame= 4070 fps= 72 q=-0.0 size=N/A time=00:02:49.75 bitrate=N/A speed=2.99x    frame= 4100 fps= 72 q=-0.0 size=N/A time=00:02:51.00 bitrate=N/A speed=2.99x    frame= 4145 fps= 72 q=-0.0 size=N/A time=00:02:52.88 bitrate=N/A speed=2.99x    frame= 4181 fps= 72 q=-0.0 size=N/A time=00:02:54.38 bitrate=N/A speed=2.99x    frame= 4217 fps= 72 q=-0.0 size=N/A time=00:02:55.88 bitrate=N/A speed=2.99x    frame= 4254 fps= 72 q=-0.0 size=N/A time=00:02:57.42 bitrate=N/A speed=2.99x    frame= 4291 fps= 72 q=-0.0 size=N/A time=00:02:58.97 bitrate=N/A speed=2.99x    frame= 4327 fps= 72 q=-0.0 size=N/A time=00:03:00.47 bitrate=N/A speed=2.99x    frame= 4363 fps= 72 q=-0.0 size=N/A time=00:03:01.97 bitrate=N/A speed=2.99x    frame= 4400 fps= 72 q=-0.0 size=N/A time=00:03:03.51 bitrate=N/A speed=2.99x    frame= 4438 fps= 72 q=-0.0 size=N/A time=00:03:05.10 bitrate=N/A speed=2.99x    frame= 4471 fps= 72 q=-0.0 size=N/A time=00:03:06.47 bitrate=N/A speed=2.99x    frame= 4510 fps= 72 q=-0.0 size=N/A time=00:03:08.10 bitrate=N/A speed=2.99x    frame= 4544 fps= 72 q=-0.0 size=N/A time=00:03:09.52 bitrate=N/A speed=2.99x    frame= 4584 fps= 72 q=-0.0 size=N/A time=00:03:11.19 bitrate=N/A speed=2.99x    frame= 4621 fps= 72 q=-0.0 size=N/A time=00:03:12.73 bitrate=N/A speed=2.99x    frame= 4658 fps= 72 q=-0.0 size=N/A time=00:03:14.27 bitrate=N/A speed=2.99x    frame= 4690 fps= 72 q=-0.0 size=N/A time=00:03:15.61 bitrate=N/A speed=2.99x    frame= 4731 fps= 72 q=-0.0 size=N/A time=00:03:17.32 bitrate=N/A speed=2.99x    frame= 4769 fps= 72 q=-0.0 size=N/A time=00:03:18.90 bitrate=N/A speed=2.99x    frame= 4806 fps= 72 q=-0.0 size=N/A time=00:03:20.45 bitrate=N/A speed=2.99x    frame= 4835 fps= 72 q=-0.0 size=N/A time=00:03:21.65 bitrate=N/A speed=2.98x    frame= 4878 fps= 72 q=-0.0 size=N/A time=00:03:23.45 bitrate=N/A speed=2.99x    frame= 4909 fps= 72 q=-0.0 size=N/A time=00:03:24.74 bitrate=N/A speed=2.98x    frame= 4951 fps= 72 q=-0.0 size=N/A time=00:03:26.49 bitrate=N/A speed=2.99x    frame= 4989 fps= 72 q=-0.0 size=N/A time=00:03:28.08 bitrate=N/A speed=2.99x    frame= 5021 fps= 72 q=-0.0 size=N/A time=00:03:29.41 bitrate=N/A speed=2.98x    frame= 5062 fps= 72 q=-0.0 size=N/A time=00:03:31.12 bitrate=N/A speed=2.99x    frame= 5100 fps= 72 q=-0.0 size=N/A time=00:03:32.71 bitrate=N/A speed=2.99x    frame= 5133 fps= 72 q=-0.0 size=N/A time=00:03:34.08 bitrate=N/A speed=2.99x    frame= 5171 fps= 72 q=-0.0 size=N/A time=00:03:35.67 bitrate=N/A speed=2.99x    frame= 5209 fps= 72 q=-0.0 size=N/A time=00:03:37.25 bitrate=N/A speed=2.99x    frame= 5246 fps= 72 q=-0.0 size=N/A time=00:03:38.80 bitrate=N/A speed=2.99x    frame= 5282 fps= 72 q=-0.0 size=N/A time=00:03:40.30 bitrate=N/A speed=2.99x    frame= 5320 fps= 72 q=-0.0 size=N/A time=00:03:41.88 bitrate=N/A speed=2.99x    frame= 5349 fps= 71 q=-0.0 size=N/A time=00:03:43.09 bitrate=N/A speed=2.98x    frame= 5393 fps= 72 q=-0.0 size=N/A time=00:03:44.93 bitrate=N/A speed=2.99x    frame= 5429 fps= 72 q=-0.0 size=N/A time=00:03:46.43 bitrate=N/A speed=2.99x    frame= 5465 fps= 72 q=-0.0 size=N/A time=00:03:47.93 bitrate=N/A speed=2.99x    frame= 5497 fps= 71 q=-0.0 size=N/A time=00:03:49.27 bitrate=N/A speed=2.98x    frame= 5537 fps= 72 q=-0.0 size=N/A time=00:03:50.93 bitrate=N/A speed=2.98x    frame= 5566 fps= 71 q=-0.0 size=N/A time=00:03:52.14 bitrate=N/A speed=2.98x    frame= 5613 fps= 72 q=-0.0 size=N/A time=00:03:54.10 bitrate=N/A speed=2.98x    frame= 5650 fps= 72 q=-0.0 size=N/A time=00:03:55.65 bitrate=N/A speed=2.99x    frame= 5682 fps= 72 q=-0.0 size=N/A time=00:03:56.98 bitrate=N/A speed=2.98x    frame= 5722 fps= 72 q=-0.0 size=N/A time=00:03:58.65 bitrate=N/A speed=2.98x    frame= 5757 fps= 72 q=-0.0 size=N/A time=00:04:00.11 bitrate=N/A speed=2.98x    frame= 5796 fps= 72 q=-0.0 size=N/A time=00:04:01.74 bitrate=N/A speed=2.98x    frame= 5836 fps= 72 q=-0.0 size=N/A time=00:04:03.40 bitrate=N/A speed=2.99x    frame= 5874 fps= 72 q=-0.0 size=N/A time=00:04:04.99 bitrate=N/A speed=2.99x    frame= 5912 fps= 72 q=-0.0 size=N/A time=00:04:06.57 bitrate=N/A speed=2.99x    frame= 5948 fps= 72 q=-0.0 size=N/A time=00:04:08.08 bitrate=N/A speed=2.99x    frame= 5980 fps= 72 q=-0.0 size=N/A time=00:04:09.41 bitrate=N/A speed=2.98x    frame= 6024 fps= 72 q=-0.0 size=N/A time=00:04:11.25 bitrate=N/A speed=2.99x    frame= 6061 fps= 72 q=-0.0 size=N/A time=00:04:12.79 bitrate=N/A speed=2.99x    frame= 6090 fps= 72 q=-0.0 size=N/A time=00:04:14.00 bitrate=N/A speed=2.98x    frame= 6133 fps= 72 q=-0.0 size=N/A time=00:04:15.79 bitrate=N/A speed=2.99x    frame= 6170 fps= 72 q=-0.0 size=N/A time=00:04:17.34 bitrate=N/A speed=2.99x    frame= 6204 fps= 72 q=-0.0 size=N/A time=00:04:18.75 bitrate=N/A speed=2.99x    frame= 6244 fps= 72 q=-0.0 size=N/A time=00:04:20.42 bitrate=N/A speed=2.99x    frame= 6282 fps= 72 q=-0.0 size=N/A time=00:04:22.01 bitrate=N/A speed=2.99x    frame= 6317 fps= 72 q=-0.0 size=N/A time=00:04:23.47 bitrate=N/A speed=2.99x    frame= 6345 fps= 71 q=-0.0 size=N/A time=00:04:24.63 bitrate=N/A speed=2.98x    frame= 6392 fps= 72 q=-0.0 size=N/A time=00:04:26.59 bitrate=N/A speed=2.99x    frame= 6430 fps= 72 q=-0.0 size=N/A time=00:04:28.18 bitrate=N/A speed=2.99x    frame= 6466 fps= 72 q=-0.0 size=N/A time=00:04:29.68 bitrate=N/A speed=2.99x    frame= 6503 fps= 72 q=-0.0 size=N/A time=00:04:31.22 bitrate=N/A speed=2.99x    frame= 6542 fps= 72 q=-0.0 size=N/A time=00:04:32.85 bitrate=N/A speed=2.99x    frame= 6577 fps= 72 q=-0.0 size=N/A time=00:04:34.31 bitrate=N/A speed=2.99x    frame= 6614 fps= 72 q=-0.0 size=N/A time=00:04:35.85 bitrate=N/A speed=2.99x    frame= 6646 fps= 72 q=-0.0 size=N/A time=00:04:37.19 bitrate=N/A speed=2.98x    frame= 6687 fps= 72 q=-0.0 size=N/A time=00:04:38.90 bitrate=N/A speed=2.99x    frame= 6723 fps= 72 q=-0.0 size=N/A time=00:04:40.40 bitrate=N/A speed=2.99x    frame= 6760 fps= 72 q=-0.0 size=N/A time=00:04:41.94 bitrate=N/A speed=2.99x    frame= 6790 fps= 72 q=-0.0 size=N/A time=00:04:43.19 bitrate=N/A speed=2.98x    frame= 6833 fps= 72 q=-0.0 size=N/A time=00:04:44.99 bitrate=N/A speed=2.99x    frame= 6869 fps= 72 q=-0.0 size=N/A time=00:04:46.49 bitrate=N/A speed=2.99x    frame= 6906 fps= 72 q=-0.0 size=N/A time=00:04:48.03 bitrate=N/A speed=2.99x    frame= 6939 fps= 72 q=-0.0 size=N/A time=00:04:49.41 bitrate=N/A speed=2.98x    frame= 6980 fps= 72 q=-0.0 size=N/A time=00:04:51.12 bitrate=N/A speed=2.99x    frame= 7017 fps= 72 q=-0.0 size=N/A time=00:04:52.66 bitrate=N/A speed=2.99x    frame= 7054 fps= 72 q=-0.0 size=N/A time=00:04:54.21 bitrate=N/A speed=2.99x    frame= 7086 fps= 72 q=-0.0 size=N/A time=00:04:55.54 bitrate=N/A speed=2.98x    frame= 7128 fps= 72 q=-0.0 size=N/A time=00:04:57.29 bitrate=N/A speed=2.99x    frame= 7164 fps= 72 q=-0.0 size=N/A time=00:04:58.79 bitrate=N/A speed=2.99x    frame= 7198 fps= 72 q=-0.0 size=N/A time=00:05:00.21 bitrate=N/A speed=2.98x    frame= 7238 fps= 72 q=-0.0 size=N/A time=00:05:01.88 bitrate=N/A speed=2.99x    frame= 7275 fps= 72 q=-0.0 size=N/A time=00:05:03.42 bitrate=N/A speed=2.99x    frame= 7310 fps= 72 q=-0.0 size=N/A time=00:05:04.88 bitrate=N/A speed=2.98x    frame= 7348 fps= 72 q=-0.0 size=N/A time=00:05:06.47 bitrate=N/A speed=2.99x    frame= 7385 fps= 72 q=-0.0 size=N/A time=00:05:08.01 bitrate=N/A speed=2.99x    frame= 7417 fps= 72 q=-0.0 size=N/A time=00:05:09.35 bitrate=N/A speed=2.98x    frame= 7448 fps= 71 q=-0.0 size=N/A time=00:05:10.64 bitrate=N/A speed=2.98x    frame= 7492 fps= 72 q=-0.0 size=N/A time=00:05:12.47 bitrate=N/A speed=2.98x    frame= 7532 fps= 72 q=-0.0 size=N/A time=00:05:14.14 bitrate=N/A speed=2.99x    frame= 7569 fps= 72 q=-0.0 size=N/A time=00:05:15.69 bitrate=N/A speed=2.98x    frame= 7606 fps= 72 q=-0.0 size=N/A time=00:05:17.23 bitrate=N/A speed=2.99x    frame= 7643 fps= 72 q=-0.0 size=N/A time=00:05:18.77 bitrate=N/A speed=2.99x    frame= 7679 fps= 72 q=-0.0 size=N/A time=00:05:20.27 bitrate=N/A speed=2.98x    frame= 7709 fps= 71 q=-0.0 size=N/A time=00:05:21.52 bitrate=N/A speed=2.98x    frame= 7751 fps= 72 q=-0.0 size=N/A time=00:05:23.28 bitrate=N/A speed=2.98x    frame= 7787 fps= 72 q=-0.0 size=N/A time=00:05:24.78 bitrate=N/A speed=2.98x    frame= 7825 fps= 72 q=-0.0 size=N/A time=00:05:26.36 bitrate=N/A speed=2.98x    frame= 7857 fps= 71 q=-0.0 size=N/A time=00:05:27.70 bitrate=N/A speed=2.98x    frame= 7894 fps= 71 q=-0.0 size=N/A time=00:05:29.24 bitrate=N/A speed=2.98x    frame= 7934 fps= 72 q=-0.0 size=N/A time=00:05:30.91 bitrate=N/A speed=2.98x    frame= 7969 fps= 72 q=-0.0 size=N/A time=00:05:32.37 bitrate=N/A speed=2.98x    frame= 8006 fps= 71 q=-0.0 size=N/A time=00:05:33.91 bitrate=N/A speed=2.98x    frame= 8043 fps= 72 q=-0.0 size=N/A time=00:05:35.46 bitrate=N/A speed=2.98x    frame= 8080 fps= 72 q=-0.0 size=N/A time=00:05:37.00 bitrate=N/A speed=2.98x    frame= 8109 fps= 71 q=-0.0 size=N/A time=00:05:38.21 bitrate=N/A speed=2.98x    frame= 8152 fps= 71 q=-0.0 size=N/A time=00:05:40.00 bitrate=N/A speed=2.98x    frame= 8190 fps= 71 q=-0.0 size=N/A time=00:05:41.59 bitrate=N/A speed=2.98x    frame= 8226 fps= 71 q=-0.0 size=N/A time=00:05:43.09 bitrate=N/A speed=2.98x    frame= 8262 fps= 71 q=-0.0 size=N/A time=00:05:44.59 bitrate=N/A speed=2.98x    frame= 8293 fps= 71 q=-0.0 size=N/A time=00:05:45.88 bitrate=N/A speed=2.98x    frame= 8335 fps= 71 q=-0.0 size=N/A time=00:05:47.63 bitrate=N/A speed=2.98x    frame= 8373 fps= 71 q=-0.0 size=N/A time=00:05:49.22 bitrate=N/A speed=2.98x    frame= 8411 fps= 71 q=-0.0 size=N/A time=00:05:50.80 bitrate=N/A speed=2.98x    frame= 8445 fps= 71 q=-0.0 size=N/A time=00:05:52.22 bitrate=N/A speed=2.98x    frame= 8483 fps= 71 q=-0.0 size=N/A time=00:05:53.81 bitrate=N/A speed=2.98x    frame= 8520 fps= 71 q=-0.0 size=N/A time=00:05:55.35 bitrate=N/A speed=2.98x    frame= 8556 fps= 71 q=-0.0 size=N/A time=00:05:56.85 bitrate=N/A speed=2.98x    frame= 8594 fps= 71 q=-0.0 size=N/A time=00:05:58.44 bitrate=N/A speed=2.98x    frame= 8630 fps= 71 q=-0.0 size=N/A time=00:05:59.94 bitrate=N/A speed=2.98x    frame= 8665 fps= 71 q=-0.0 size=N/A time=00:06:01.40 bitrate=N/A speed=2.98x    frame= 8704 fps= 71 q=-0.0 size=N/A time=00:06:03.02 bitrate=N/A speed=2.98x    frame= 8743 fps= 71 q=-0.0 size=N/A time=00:06:04.65 bitrate=N/A speed=2.98x    frame= 8775 fps= 71 q=-0.0 size=N/A time=00:06:05.99 bitrate=N/A speed=2.98x    frame= 8814 fps= 71 q=-0.0 size=N/A time=00:06:07.61 bitrate=N/A speed=2.98x    frame= 8853 fps= 71 q=-0.0 size=N/A time=00:06:09.24 bitrate=N/A speed=2.98x    frame= 8888 fps= 71 q=-0.0 size=N/A time=00:06:10.70 bitrate=N/A speed=2.98x    frame= 8926 fps= 71 q=-0.0 size=N/A time=00:06:12.28 bitrate=N/A speed=2.98x    frame= 8959 fps= 71 q=-0.0 size=N/A time=00:06:13.66 bitrate=N/A speed=2.98x    frame= 8999 fps= 71 q=-0.0 size=N/A time=00:06:15.33 bitrate=N/A speed=2.98x    frame= 9037 fps= 71 q=-0.0 size=N/A time=00:06:16.91 bitrate=N/A speed=2.98x    frame= 9070 fps= 71 q=-0.0 size=N/A time=00:06:18.29 bitrate=N/A speed=2.98x    frame= 9110 fps= 71 q=-0.0 size=N/A time=00:06:19.96 bitrate=N/A speed=2.98x    frame= 9146 fps= 71 q=-0.0 size=N/A time=00:06:21.46 bitrate=N/A speed=2.98x    frame= 9182 fps= 71 q=-0.0 size=N/A time=00:06:22.96 bitrate=N/A speed=2.98x    frame= 9218 fps= 71 q=-0.0 size=N/A time=00:06:24.46 bitrate=N/A speed=2.98x    frame= 9257 fps= 71 q=-0.0 size=N/A time=00:06:26.09 bitrate=N/A speed=2.98x    frame= 9287 fps= 71 q=-0.0 size=N/A time=00:06:27.34 bitrate=N/A speed=2.98x    frame= 9330 fps= 71 q=-0.0 size=N/A time=00:06:29.13 bitrate=N/A speed=2.98x    frame= 9368 fps= 71 q=-0.0 size=N/A time=00:06:30.72 bitrate=N/A speed=2.98x    frame= 9399 fps= 71 q=-0.0 size=N/A time=00:06:32.01 bitrate=N/A speed=2.98x    frame= 9444 fps= 71 q=-0.0 size=N/A time=00:06:33.89 bitrate=N/A speed=2.98x    frame= 9479 fps= 71 q=-0.0 size=N/A time=00:06:35.35 bitrate=N/A speed=2.98x    frame= 9516 fps= 71 q=-0.0 size=N/A time=00:06:36.89 bitrate=N/A speed=2.98x    frame= 9555 fps= 71 q=-0.0 size=N/A time=00:06:38.52 bitrate=N/A speed=2.98x    frame= 9587 fps= 71 q=-0.0 size=N/A time=00:06:39.85 bitrate=N/A speed=2.98x    frame= 9629 fps= 71 q=-0.0 size=N/A time=00:06:41.60 bitrate=N/A speed=2.98x    frame= 9666 fps= 71 q=-0.0 size=N/A time=00:06:43.15 bitrate=N/A speed=2.98x    frame= 9697 fps= 71 q=-0.0 size=N/A time=00:06:44.44 bitrate=N/A speed=2.98x    frame= 9740 fps= 71 q=-0.0 size=N/A time=00:06:46.23 bitrate=N/A speed=2.98x    frame= 9778 fps= 71 q=-0.0 size=N/A time=00:06:47.82 bitrate=N/A speed=2.98x    frame= 9816 fps= 72 q=-0.0 size=N/A time=00:06:49.40 bitrate=N/A speed=2.98x    frame= 9853 fps= 71 q=-0.0 size=N/A time=00:06:50.95 bitrate=N/A speed=2.98x    frame= 9889 fps= 71 q=-0.0 size=N/A time=00:06:52.45 bitrate=N/A speed=2.98x    frame= 9926 fps= 71 q=-0.0 size=N/A time=00:06:53.99 bitrate=N/A speed=2.98x    frame= 9964 fps= 72 q=-0.0 size=N/A time=00:06:55.58 bitrate=N/A speed=2.98x    frame= 9999 fps= 71 q=-0.0 size=N/A time=00:06:57.04 bitrate=N/A speed=2.98x    frame=10036 fps= 71 q=-0.0 size=N/A time=00:06:58.58 bitrate=N/A speed=2.98x    frame=10072 fps= 71 q=-0.0 size=N/A time=00:07:00.08 bitrate=N/A speed=2.98x    frame=10106 fps= 71 q=-0.0 size=N/A time=00:07:01.50 bitrate=N/A speed=2.98x    frame=10147 fps= 71 q=-0.0 size=N/A time=00:07:03.21 bitrate=N/A speed=2.98x    frame=10183 fps= 71 q=-0.0 size=N/A time=00:07:04.71 bitrate=N/A speed=2.98x    frame=10222 fps= 72 q=-0.0 size=N/A time=00:07:06.34 bitrate=N/A speed=2.98x    frame=10259 fps= 72 q=-0.0 size=N/A time=00:07:07.88 bitrate=N/A speed=2.98x    frame=10295 fps= 71 q=-0.0 size=N/A time=00:07:09.38 bitrate=N/A speed=2.98x    frame=10332 fps= 71 q=-0.0 size=N/A time=00:07:10.93 bitrate=N/A speed=2.98x    frame=10368 fps= 71 q=-0.0 size=N/A time=00:07:12.43 bitrate=N/A speed=2.98x    frame=10401 fps= 71 q=-0.0 size=N/A time=00:07:13.80 bitrate=N/A speed=2.98x    frame=10442 fps= 71 q=-0.0 size=N/A time=00:07:15.51 bitrate=N/A speed=2.98x    frame=10479 fps= 71 q=-0.0 size=N/A time=00:07:17.06 bitrate=N/A speed=2.98x    frame=10512 fps= 71 q=-0.0 size=N/A time=00:07:18.43 bitrate=N/A speed=2.98x    frame=10552 fps= 71 q=-0.0 size=N/A time=00:07:20.10 bitrate=N/A speed=2.98x    frame=10589 fps= 71 q=-0.0 size=N/A time=00:07:21.64 bitrate=N/A speed=2.98x    frame=10621 fps= 71 q=-0.0 size=N/A time=00:07:22.98 bitrate=N/A speed=2.98x    frame=10662 fps= 71 q=-0.0 size=N/A time=00:07:24.69 bitrate=N/A speed=2.98x    frame=10698 fps= 71 q=-0.0 size=N/A time=00:07:26.19 bitrate=N/A speed=2.98x    frame=10733 fps= 71 q=-0.0 size=N/A time=00:07:27.65 bitrate=N/A speed=2.98x    frame=10772 fps= 71 q=-0.0 size=N/A time=00:07:29.28 bitrate=N/A speed=2.98x    frame=10809 fps= 71 q=-0.0 size=N/A time=00:07:30.82 bitrate=N/A speed=2.98x    frame=10844 fps= 71 q=-0.0 size=N/A time=00:07:32.28 bitrate=N/A speed=2.98x    frame=10883 fps= 71 q=-0.0 size=N/A time=00:07:33.91 bitrate=N/A speed=2.98x    frame=10917 fps= 71 q=-0.0 size=N/A time=00:07:35.32 bitrate=N/A speed=2.98x    frame=10956 fps= 71 q=-0.0 size=N/A time=00:07:36.95 bitrate=N/A speed=2.98x    frame=10991 fps= 71 q=-0.0 size=N/A time=00:07:38.41 bitrate=N/A speed=2.98x    frame=11025 fps= 71 q=-0.0 size=N/A time=00:07:39.83 bitrate=N/A speed=2.98x    frame=11064 fps= 71 q=-0.0 size=N/A time=00:07:41.46 bitrate=N/A speed=2.98x    frame=11098 fps= 71 q=-0.0 size=N/A time=00:07:42.87 bitrate=N/A speed=2.98x    frame=11137 fps= 71 q=-0.0 size=N/A time=00:07:44.50 bitrate=N/A speed=2.98x    frame=11175 fps= 71 q=-0.0 size=N/A time=00:07:46.09 bitrate=N/A speed=2.98x    frame=11210 fps= 71 q=-0.0 size=N/A time=00:07:47.55 bitrate=N/A speed=2.98x    frame=11248 fps= 71 q=-0.0 size=N/A time=00:07:49.13 bitrate=N/A speed=2.98x    frame=11285 fps= 71 q=-0.0 size=N/A time=00:07:50.67 bitrate=N/A speed=2.98x    frame=11322 fps= 71 q=-0.0 size=N/A time=00:07:52.22 bitrate=N/A speed=2.98x    frame=11359 fps= 71 q=-0.0 size=N/A time=00:07:53.76 bitrate=N/A speed=2.98x    frame=11395 fps= 71 q=-0.0 size=N/A time=00:07:55.26 bitrate=N/A speed=2.98x    frame=11433 fps= 71 q=-0.0 size=N/A time=00:07:56.85 bitrate=N/A speed=2.98x    frame=11469 fps= 71 q=-0.0 size=N/A time=00:07:58.35 bitrate=N/A speed=2.98x    frame=11506 fps= 71 q=-0.0 size=N/A time=00:07:59.89 bitrate=N/A speed=2.98x    frame=11542 fps= 71 q=-0.0 size=N/A time=00:08:01.39 bitrate=N/A speed=2.98x    frame=11580 fps= 71 q=-0.0 size=N/A time=00:08:02.98 bitrate=N/A speed=2.98x    frame=11614 fps= 71 q=-0.0 size=N/A time=00:08:04.40 bitrate=N/A speed=2.98x    frame=11652 fps= 71 q=-0.0 size=N/A time=00:08:05.98 bitrate=N/A speed=2.98x    frame=11689 fps= 71 q=-0.0 size=N/A time=00:08:07.52 bitrate=N/A speed=2.98x    frame=11726 fps= 71 q=-0.0 size=N/A time=00:08:09.07 bitrate=N/A speed=2.98x    frame=11760 fps= 71 q=-0.0 size=N/A time=00:08:10.49 bitrate=N/A speed=2.98x    frame=11799 fps= 71 q=-0.0 size=N/A time=00:08:12.11 bitrate=N/A speed=2.98x    frame=11838 fps= 71 q=-0.0 size=N/A time=00:08:13.74 bitrate=N/A speed=2.98x    frame=11874 fps= 71 q=-0.0 size=N/A time=00:08:15.24 bitrate=N/A speed=2.98x    frame=11910 fps= 71 q=-0.0 size=N/A time=00:08:16.74 bitrate=N/A speed=2.98x    frame=11947 fps= 71 q=-0.0 size=N/A time=00:08:18.28 bitrate=N/A speed=2.98x    frame=11983 fps= 71 q=-0.0 size=N/A time=00:08:19.79 bitrate=N/A speed=2.98x    frame=12019 fps= 71 q=-0.0 size=N/A time=00:08:21.29 bitrate=N/A speed=2.98x    frame=12050 fps= 71 q=-0.0 size=N/A time=00:08:22.58 bitrate=N/A speed=2.98x    frame=12093 fps= 71 q=-0.0 size=N/A time=00:08:24.37 bitrate=N/A speed=2.98x    frame=12125 fps= 71 q=-0.0 size=N/A time=00:08:25.71 bitrate=N/A speed=2.98x    frame=12167 fps= 71 q=-0.0 size=N/A time=00:08:27.46 bitrate=N/A speed=2.98x    frame=12200 fps= 71 q=-0.0 size=N/A time=00:08:28.84 bitrate=N/A speed=2.98x    frame=12241 fps= 71 q=-0.0 size=N/A time=00:08:30.55 bitrate=N/A speed=2.98x    frame=12268 fps= 71 q=-0.0 size=N/A time=00:08:31.67 bitrate=N/A speed=2.98x    frame=12313 fps= 71 q=-0.0 size=N/A time=00:08:33.55 bitrate=N/A speed=2.98x    frame=12350 fps= 71 q=-0.0 size=N/A time=00:08:35.09 bitrate=N/A speed=2.98x    frame=12386 fps= 71 q=-0.0 size=N/A time=00:08:36.59 bitrate=N/A speed=2.98x    frame=12423 fps= 71 q=-0.0 size=N/A time=00:08:38.14 bitrate=N/A speed=2.98x    frame=12458 fps= 71 q=-0.0 size=N/A time=00:08:39.60 bitrate=N/A speed=2.98x    frame=12496 fps= 71 q=-0.0 size=N/A time=00:08:41.18 bitrate=N/A speed=2.98x    frame=12532 fps= 71 q=-0.0 size=N/A time=00:08:42.68 bitrate=N/A speed=2.98x    frame=12568 fps= 71 q=-0.0 size=N/A time=00:08:44.19 bitrate=N/A speed=2.98x    frame=12605 fps= 71 q=-0.0 size=N/A time=00:08:45.73 bitrate=N/A speed=2.98x    frame=12635 fps= 71 q=-0.0 size=N/A time=00:08:46.98 bitrate=N/A speed=2.98x    frame=12676 fps= 71 q=-0.0 size=N/A time=00:08:48.69 bitrate=N/A speed=2.98x    frame=12714 fps= 71 q=-0.0 size=N/A time=00:08:50.27 bitrate=N/A speed=2.98x    frame=12751 fps= 71 q=-0.0 size=N/A time=00:08:51.82 bitrate=N/A speed=2.98x    frame=12788 fps= 71 q=-0.0 size=N/A time=00:08:53.36 bitrate=N/A speed=2.98x    frame=12825 fps= 71 q=-0.0 size=N/A time=00:08:54.90 bitrate=N/A speed=2.98x    frame=12862 fps= 71 q=-0.0 size=N/A time=00:08:56.45 bitrate=N/A speed=2.98x    frame=12899 fps= 71 q=-0.0 size=N/A time=00:08:57.99 bitrate=N/A speed=2.98x    frame=12936 fps= 71 q=-0.0 size=N/A time=00:08:59.53 bitrate=N/A speed=2.98x    frame=12973 fps= 71 q=-0.0 size=N/A time=00:09:01.08 bitrate=N/A speed=2.98x    frame=13010 fps= 71 q=-0.0 size=N/A time=00:09:02.62 bitrate=N/A speed=2.98x    frame=13047 fps= 71 q=-0.0 size=N/A time=00:09:04.16 bitrate=N/A speed=2.98x    frame=13084 fps= 71 q=-0.0 size=N/A time=00:09:05.71 bitrate=N/A speed=2.98x    frame=13119 fps= 71 q=-0.0 size=N/A time=00:09:07.17 bitrate=N/A speed=2.98x    frame=13157 fps= 71 q=-0.0 size=N/A time=00:09:08.75 bitrate=N/A speed=2.98x    frame=13193 fps= 71 q=-0.0 size=N/A time=00:09:10.25 bitrate=N/A speed=2.98x    frame=13229 fps= 71 q=-0.0 size=N/A time=00:09:11.75 bitrate=N/A speed=2.98x    frame=13266 fps= 71 q=-0.0 size=N/A time=00:09:13.30 bitrate=N/A speed=2.98x    frame=13303 fps= 71 q=-0.0 size=N/A time=00:09:14.84 bitrate=N/A speed=2.98x    frame=13338 fps= 71 q=-0.0 size=N/A time=00:09:16.30 bitrate=N/A speed=2.98x    frame=13376 fps= 71 q=-0.0 size=N/A time=00:09:17.89 bitrate=N/A speed=2.98x    frame=13409 fps= 71 q=-0.0 size=N/A time=00:09:19.26 bitrate=N/A speed=2.98x    frame=13445 fps= 71 q=-0.0 size=N/A time=00:09:20.76 bitrate=N/A speed=2.98x    frame=13486 fps= 71 q=-0.0 size=N/A time=00:09:22.47 bitrate=N/A speed=2.98x    frame=13521 fps= 71 q=-0.0 size=N/A time=00:09:23.93 bitrate=N/A speed=2.98x    frame=13558 fps= 71 q=-0.0 size=N/A time=00:09:25.48 bitrate=N/A speed=2.98x    frame=13595 fps= 71 q=-0.0 size=N/A time=00:09:27.02 bitrate=N/A speed=2.98x    frame=13631 fps= 71 q=-0.0 size=N/A time=00:09:28.52 bitrate=N/A speed=2.98x    frame=13668 fps= 71 q=-0.0 size=N/A time=00:09:30.06 bitrate=N/A speed=2.98x    frame=13699 fps= 71 q=-0.0 size=N/A time=00:09:31.36 bitrate=N/A speed=2.98x    frame=13741 fps= 71 q=-0.0 size=N/A time=00:09:33.11 bitrate=N/A speed=2.98x    frame=13778 fps= 71 q=-0.0 size=N/A time=00:09:34.65 bitrate=N/A speed=2.98x    frame=13815 fps= 71 q=-0.0 size=N/A time=00:09:36.20 bitrate=N/A speed=2.98x    frame=13852 fps= 71 q=-0.0 size=N/A time=00:09:37.74 bitrate=N/A speed=2.98x    frame=13883 fps= 71 q=-0.0 size=N/A time=00:09:39.03 bitrate=N/A speed=2.98x    frame=13925 fps= 71 q=-0.0 size=N/A time=00:09:40.78 bitrate=N/A speed=2.98x    frame=13963 fps= 71 q=-0.0 size=N/A time=00:09:42.37 bitrate=N/A speed=2.98x    frame=14000 fps= 71 q=-0.0 size=N/A time=00:09:43.91 bitrate=N/A speed=2.98x    frame=14036 fps= 71 q=-0.0 size=N/A time=00:09:45.41 bitrate=N/A speed=2.98x    frame=14073 fps= 71 q=-0.0 size=N/A time=00:09:46.96 bitrate=N/A speed=2.98x    frame=14105 fps= 71 q=-0.0 size=N/A time=00:09:48.29 bitrate=N/A speed=2.98x    frame=14140 fps= 71 q=-0.0 size=N/A time=00:09:49.75 bitrate=N/A speed=2.98x    frame=14181 fps= 71 q=-0.0 size=N/A time=00:09:51.46 bitrate=N/A speed=2.98x    frame=14213 fps= 71 q=-0.0 size=N/A time=00:09:52.80 bitrate=N/A speed=2.98x    frame=14255 fps= 71 q=-0.0 size=N/A time=00:09:54.55 bitrate=N/A speed=2.98x    frame=14292 fps= 71 q=-0.0 size=N/A time=00:09:56.09 bitrate=N/A speed=2.98x    frame=14328 fps= 71 q=-0.0 size=N/A time=00:09:57.59 bitrate=N/A speed=2.98x    frame=14365 fps= 71 q=-0.0 size=N/A time=00:09:59.14 bitrate=N/A speed=2.98x    frame=14394 fps= 71 q=-0.0 size=N/A time=00:10:00.34 bitrate=N/A speed=2.98x    frame=14437 fps= 71 q=-0.0 size=N/A time=00:10:02.14 bitrate=N/A speed=2.98x    frame=14464 fps= 71 q=-0.0 size=N/A time=00:10:03.26 bitrate=N/A speed=2.97x    frame=14510 fps= 71 q=-0.0 size=N/A time=00:10:05.18 bitrate=N/A speed=2.98x    frame=14546 fps= 71 q=-0.0 size=N/A time=00:10:06.68 bitrate=N/A speed=2.98x    frame=14581 fps= 71 q=-0.0 size=N/A time=00:10:08.14 bitrate=N/A speed=2.98x    frame=14620 fps= 71 q=-0.0 size=N/A time=00:10:09.77 bitrate=N/A speed=2.98x    frame=14656 fps= 71 q=-0.0 size=N/A time=00:10:11.27 bitrate=N/A speed=2.98x    frame=14693 fps= 71 q=-0.0 size=N/A time=00:10:12.82 bitrate=N/A speed=2.98x    frame=14722 fps= 71 q=-0.0 size=N/A time=00:10:14.03 bitrate=N/A speed=2.97x    frame=14766 fps= 71 q=-0.0 size=N/A time=00:10:15.86 bitrate=N/A speed=2.98x    frame=14803 fps= 71 q=-0.0 size=N/A time=00:10:17.40 bitrate=N/A speed=2.98x    frame=14839 fps= 71 q=-0.0 size=N/A time=00:10:18.90 bitrate=N/A speed=2.98x    frame=14877 fps= 71 q=-0.0 size=N/A time=00:10:20.49 bitrate=N/A speed=2.98x    frame=14913 fps= 71 q=-0.0 size=N/A time=00:10:21.99 bitrate=N/A speed=2.98x    frame=14950 fps= 71 q=-0.0 size=N/A time=00:10:23.53 bitrate=N/A speed=2.98x    frame=14984 fps= 71 q=-0.0 size=N/A time=00:10:24.95 bitrate=N/A speed=2.98x    frame=15025 fps= 71 q=-0.0 size=N/A time=00:10:26.66 bitrate=N/A speed=2.98x    frame=15061 fps= 71 q=-0.0 size=N/A time=00:10:28.16 bitrate=N/A speed=2.98x    frame=15095 fps= 71 q=-0.0 size=N/A time=00:10:29.58 bitrate=N/A speed=2.98x    frame=15135 fps= 71 q=-0.0 size=N/A time=00:10:31.25 bitrate=N/A speed=2.98x    frame=15173 fps= 71 q=-0.0 size=N/A time=00:10:32.84 bitrate=N/A speed=2.98x    frame=15209 fps= 71 q=-0.0 size=N/A time=00:10:34.34 bitrate=N/A speed=2.98x    frame=15246 fps= 71 q=-0.0 size=N/A time=00:10:35.88 bitrate=N/A speed=2.98x    frame=15283 fps= 71 q=-0.0 size=N/A time=00:10:37.42 bitrate=N/A speed=2.98x    frame=15313 fps= 71 q=-0.0 size=N/A time=00:10:38.67 bitrate=N/A speed=2.98x    frame=15356 fps= 71 q=-0.0 size=N/A time=00:10:40.47 bitrate=N/A speed=2.98x    frame=15387 fps= 71 q=-0.0 size=N/A time=00:10:41.76 bitrate=N/A speed=2.98x    frame=15427 fps= 71 q=-0.0 size=N/A time=00:10:43.43 bitrate=N/A speed=2.98x    frame=15463 fps= 71 q=-0.0 size=N/A time=00:10:44.93 bitrate=N/A speed=2.98x    frame=15498 fps= 71 q=-0.0 size=N/A time=00:10:46.39 bitrate=N/A speed=2.98x    frame=15535 fps= 71 q=-0.0 size=N/A time=00:10:47.93 bitrate=N/A speed=2.98x    frame=15573 fps= 71 q=-0.0 size=N/A time=00:10:49.52 bitrate=N/A speed=2.98x    frame=15608 fps= 71 q=-0.0 size=N/A time=00:10:50.98 bitrate=N/A speed=2.98x    frame=15646 fps= 71 q=-0.0 size=N/A time=00:10:52.56 bitrate=N/A speed=2.98x    frame=15683 fps= 71 q=-0.0 size=N/A time=00:10:54.11 bitrate=N/A speed=2.98x    frame=15719 fps= 71 q=-0.0 size=N/A time=00:10:55.61 bitrate=N/A speed=2.98x    frame=15749 fps= 71 q=-0.0 size=N/A time=00:10:56.86 bitrate=N/A speed=2.97x    frame=15792 fps= 71 q=-0.0 size=N/A time=00:10:58.65 bitrate=N/A speed=2.98x    frame=15828 fps= 71 q=-0.0 size=N/A time=00:11:00.15 bitrate=N/A speed=2.98x    frame=15866 fps= 71 q=-0.0 size=N/A time=00:11:01.74 bitrate=N/A speed=2.98x    frame=15903 fps= 71 q=-0.0 size=N/A time=00:11:03.28 bitrate=N/A speed=2.98x    frame=15940 fps= 71 q=-0.0 size=N/A time=00:11:04.83 bitrate=N/A speed=2.98x    frame=15978 fps= 71 q=-0.0 size=N/A time=00:11:06.41 bitrate=N/A speed=2.98x    frame=16014 fps= 71 q=-0.0 size=N/A time=00:11:07.91 bitrate=N/A speed=2.98x    frame=16045 fps= 71 q=-0.0 size=N/A time=00:11:09.21 bitrate=N/A speed=2.97x    frame=16088 fps= 71 q=-0.0 size=N/A time=00:11:11.00 bitrate=N/A speed=2.98x    frame=16125 fps= 71 q=-0.0 size=N/A time=00:11:12.54 bitrate=N/A speed=2.98x    frame=16158 fps= 71 q=-0.0 size=N/A time=00:11:13.92 bitrate=N/A speed=2.98x    frame=16195 fps= 71 q=-0.0 size=N/A time=00:11:15.46 bitrate=N/A speed=2.98x    frame=16235 fps= 71 q=-0.0 size=N/A time=00:11:17.13 bitrate=N/A speed=2.98x    frame=16271 fps= 71 q=-0.0 size=N/A time=00:11:18.63 bitrate=N/A speed=2.98x    frame=16307 fps= 71 q=-0.0 size=N/A time=00:11:20.13 bitrate=N/A speed=2.98x    frame=16345 fps= 71 q=-0.0 size=N/A time=00:11:21.72 bitrate=N/A speed=2.98x    frame=16382 fps= 71 q=-0.0 size=N/A time=00:11:23.26 bitrate=N/A speed=2.98x    frame=16414 fps= 71 q=-0.0 size=N/A time=00:11:24.60 bitrate=N/A speed=2.97x    frame=16456 fps= 71 q=-0.0 size=N/A time=00:11:26.35 bitrate=N/A speed=2.98x    frame=16493 fps= 71 q=-0.0 size=N/A time=00:11:27.89 bitrate=N/A speed=2.98x    frame=16529 fps= 71 q=-0.0 size=N/A time=00:11:29.39 bitrate=N/A speed=2.98x    frame=16566 fps= 71 q=-0.0 size=N/A time=00:11:30.94 bitrate=N/A speed=2.98x    frame=16603 fps= 71 q=-0.0 size=N/A time=00:11:32.48 bitrate=N/A speed=2.98x    frame=16638 fps= 71 q=-0.0 size=N/A time=00:11:33.94 bitrate=N/A speed=2.98x    frame=16676 fps= 71 q=-0.0 size=N/A time=00:11:35.52 bitrate=N/A speed=2.98x    frame=16713 fps= 71 q=-0.0 size=N/A time=00:11:37.07 bitrate=N/A speed=2.98x    frame=16747 fps= 71 q=-0.0 size=N/A time=00:11:38.48 bitrate=N/A speed=2.98x    frame=16775 fps= 71 q=-0.0 size=N/A time=00:11:39.65 bitrate=N/A speed=2.97x    frame=16823 fps= 71 q=-0.0 size=N/A time=00:11:41.65 bitrate=N/A speed=2.98x    frame=16854 fps= 71 q=-0.0 size=N/A time=00:11:42.95 bitrate=N/A speed=2.97x    frame=16897 fps= 71 q=-0.0 size=N/A time=00:11:44.74 bitrate=N/A speed=2.98x    frame=16934 fps= 71 q=-0.0 size=N/A time=00:11:46.28 bitrate=N/A speed=2.98x    frame=16966 fps= 71 q=-0.0 size=N/A time=00:11:47.62 bitrate=N/A speed=2.97x    frame=17005 fps= 71 q=-0.0 size=N/A time=00:11:49.25 bitrate=N/A speed=2.98x    frame=17041 fps= 71 q=-0.0 size=N/A time=00:11:50.75 bitrate=N/A speed=2.98x    frame=17078 fps= 71 q=-0.0 size=N/A time=00:11:52.29 bitrate=N/A speed=2.98x    frame=17113 fps= 71 q=-0.0 size=N/A time=00:11:53.75 bitrate=N/A speed=2.97x    frame=17150 fps= 71 q=-0.0 size=N/A time=00:11:55.29 bitrate=N/A speed=2.97x    frame=17185 fps= 71 q=-0.0 size=N/A time=00:11:56.75 bitrate=N/A speed=2.97x    frame=17224 fps= 71 q=-0.0 size=N/A time=00:11:58.38 bitrate=N/A speed=2.97x    frame=17259 fps= 71 q=-0.0 size=N/A time=00:11:59.84 bitrate=N/A speed=2.97x    frame=17292 fps= 71 q=-0.0 size=N/A time=00:12:01.22 bitrate=N/A speed=2.97x    frame=17335 fps= 71 q=-0.0 size=N/A time=00:12:03.01 bitrate=N/A speed=2.97x    frame=17372 fps= 71 q=-0.0 size=N/A time=00:12:04.55 bitrate=N/A speed=2.97x    frame=17408 fps= 71 q=-0.0 size=N/A time=00:12:06.05 bitrate=N/A speed=2.97x    frame=17446 fps= 71 q=-0.0 size=N/A time=00:12:07.64 bitrate=N/A speed=2.97x    frame=17481 fps= 71 q=-0.0 size=N/A time=00:12:09.10 bitrate=N/A speed=2.97x    frame=17519 fps= 71 q=-0.0 size=N/A time=00:12:10.68 bitrate=N/A speed=2.97x    frame=17555 fps= 71 q=-0.0 size=N/A time=00:12:12.18 bitrate=N/A speed=2.97x    frame=17592 fps= 71 q=-0.0 size=N/A time=00:12:13.73 bitrate=N/A speed=2.97x    frame=17630 fps= 71 q=-0.0 size=N/A time=00:12:15.31 bitrate=N/A speed=2.97x    frame=17667 fps= 71 q=-0.0 size=N/A time=00:12:16.86 bitrate=N/A speed=2.98x    frame=17704 fps= 71 q=-0.0 size=N/A time=00:12:18.40 bitrate=N/A speed=2.98x    frame=17741 fps= 71 q=-0.0 size=N/A time=00:12:19.94 bitrate=N/A speed=2.98x    frame=17778 fps= 71 q=-0.0 size=N/A time=00:12:21.49 bitrate=N/A speed=2.98x    frame=17815 fps= 71 q=-0.0 size=N/A time=00:12:23.03 bitrate=N/A speed=2.98x    frame=17850 fps= 71 q=-0.0 size=N/A time=00:12:24.49 bitrate=N/A speed=2.97x    frame=17888 fps= 71 q=-0.0 size=N/A time=00:12:26.07 bitrate=N/A speed=2.98x    frame=17926 fps= 71 q=-0.0 size=N/A time=00:12:27.66 bitrate=N/A speed=2.98x    frame=17963 fps= 71 q=-0.0 size=N/A time=00:12:29.20 bitrate=N/A speed=2.98x    frame=18000 fps= 71 q=-0.0 size=N/A time=00:12:30.75 bitrate=N/A speed=2.98x    frame=18030 fps= 71 q=-0.0 size=N/A time=00:12:32.00 bitrate=N/A speed=2.97x    frame=18072 fps= 71 q=-0.0 size=N/A time=00:12:33.75 bitrate=N/A speed=2.97x    frame=18111 fps= 71 q=-0.0 size=N/A time=00:12:35.37 bitrate=N/A speed=2.98x    frame=18144 fps= 71 q=-0.0 size=N/A time=00:12:36.75 bitrate=N/A speed=2.97x    frame=18181 fps= 71 q=-0.0 size=N/A time=00:12:38.29 bitrate=N/A speed=2.97x    frame=18222 fps= 71 q=-0.0 size=N/A time=00:12:40.00 bitrate=N/A speed=2.98x    frame=18260 fps= 71 q=-0.0 size=N/A time=00:12:41.59 bitrate=N/A speed=2.98x    frame=18285 fps= 71 q=-0.0 size=N/A time=00:12:42.63 bitrate=N/A speed=2.97x    frame=18333 fps= 71 q=-0.0 size=N/A time=00:12:44.63 bitrate=N/A speed=2.98x    frame=18372 fps= 71 q=-0.0 size=N/A time=00:12:46.26 bitrate=N/A speed=2.98x    frame=18410 fps= 71 q=-0.0 size=N/A time=00:12:47.85 bitrate=N/A speed=2.98x    frame=18439 fps= 71 q=-0.0 size=N/A time=00:12:49.05 bitrate=N/A speed=2.97x    frame=18482 fps= 71 q=-0.0 size=N/A time=00:12:50.85 bitrate=N/A speed=2.98x    frame=18520 fps= 71 q=-0.0 size=N/A time=00:12:52.43 bitrate=N/A speed=2.98x    frame=18551 fps= 71 q=-0.0 size=N/A time=00:12:53.73 bitrate=N/A speed=2.98x    frame=18592 fps= 71 q=-0.0 size=N/A time=00:12:55.44 bitrate=N/A speed=2.98x    frame=18621 fps= 71 q=-0.0 size=N/A time=00:12:56.65 bitrate=N/A speed=2.97x    frame=18667 fps= 71 q=-0.0 size=N/A time=00:12:58.56 bitrate=N/A speed=2.98x    frame=18703 fps= 71 q=-0.0 size=N/A time=00:13:00.07 bitrate=N/A speed=2.98x    frame=18740 fps= 71 q=-0.0 size=N/A time=00:13:01.61 bitrate=N/A speed=2.98x    frame=18775 fps= 71 q=-0.0 size=N/A time=00:13:03.07 bitrate=N/A speed=2.98x    frame=18814 fps= 71 q=-0.0 size=N/A time=00:13:04.70 bitrate=N/A speed=2.98x    frame=18850 fps= 71 q=-0.0 size=N/A time=00:13:06.20 bitrate=N/A speed=2.98x    frame=18887 fps= 71 q=-0.0 size=N/A time=00:13:07.74 bitrate=N/A speed=2.98x    frame=18924 fps= 71 q=-0.0 size=N/A time=00:13:09.28 bitrate=N/A speed=2.98x    frame=18959 fps= 71 q=-0.0 size=N/A time=00:13:10.74 bitrate=N/A speed=2.98x    frame=18996 fps= 71 q=-0.0 size=N/A time=00:13:12.29 bitrate=N/A speed=2.98x    frame=19033 fps= 71 q=-0.0 size=N/A time=00:13:13.83 bitrate=N/A speed=2.98x    frame=19069 fps= 71 q=-0.0 size=N/A time=00:13:15.33 bitrate=N/A speed=2.98x    frame=19105 fps= 71 q=-0.0 size=N/A time=00:13:16.83 bitrate=N/A speed=2.98x    frame=19138 fps= 71 q=-0.0 size=N/A time=00:13:18.21 bitrate=N/A speed=2.97x    frame=19180 fps= 71 q=-0.0 size=N/A time=00:13:19.96 bitrate=N/A speed=2.98x    frame=19214 fps= 71 q=-0.0 size=N/A time=00:13:21.38 bitrate=N/A speed=2.98x    frame=19253 fps= 71 q=-0.0 size=N/A time=00:13:23.01 bitrate=N/A speed=2.98x    frame=19292 fps= 71 q=-0.0 size=N/A time=00:13:24.63 bitrate=N/A speed=2.98x    frame=19326 fps= 71 q=-0.0 size=N/A time=00:13:26.05 bitrate=N/A speed=2.98x    frame=19354 fps= 71 q=-0.0 size=N/A time=00:13:27.22 bitrate=N/A speed=2.97x    frame=19399 fps= 71 q=-0.0 size=N/A time=00:13:29.09 bitrate=N/A speed=2.98x    frame=19440 fps= 71 q=-0.0 size=N/A time=00:13:30.81 bitrate=N/A speed=2.98x    frame=19477 fps= 71 q=-0.0 size=N/A time=00:13:32.35 bitrate=N/A speed=2.98x    frame=19514 fps= 71 q=-0.0 size=N/A time=00:13:33.89 bitrate=N/A speed=2.98x    frame=19552 fps= 71 q=-0.0 size=N/A time=00:13:35.48 bitrate=N/A speed=2.98x    frame=19589 fps= 71 q=-0.0 size=N/A time=00:13:37.02 bitrate=N/A speed=2.98x    frame=19622 fps= 71 q=-0.0 size=N/A time=00:13:38.40 bitrate=N/A speed=2.98x    frame=19659 fps= 71 q=-0.0 size=N/A time=00:13:39.94 bitrate=N/A speed=2.98x    frame=19698 fps= 71 q=-0.0 size=N/A time=00:13:41.57 bitrate=N/A speed=2.98x    frame=19735 fps= 71 q=-0.0 size=N/A time=00:13:43.11 bitrate=N/A speed=2.98x    frame=19771 fps= 71 q=-0.0 size=N/A time=00:13:44.61 bitrate=N/A speed=2.98x    frame=19810 fps= 71 q=-0.0 size=N/A time=00:13:46.24 bitrate=N/A speed=2.98x    frame=19847 fps= 71 q=-0.0 size=N/A time=00:13:47.78 bitrate=N/A speed=2.98x    frame=19883 fps= 71 q=-0.0 size=N/A time=00:13:49.28 bitrate=N/A speed=2.98x    frame=19922 fps= 71 q=-0.0 size=N/A time=00:13:50.91 bitrate=N/A speed=2.98x    frame=19959 fps= 71 q=-0.0 size=N/A time=00:13:52.45 bitrate=N/A speed=2.98x    frame=19993 fps= 71 q=-0.0 size=N/A time=00:13:53.87 bitrate=N/A speed=2.98x    frame=20031 fps= 71 q=-0.0 size=N/A time=00:13:55.45 bitrate=N/A speed=2.98x    frame=20069 fps= 71 q=-0.0 size=N/A time=00:13:57.04 bitrate=N/A speed=2.98x    frame=20106 fps= 71 q=-0.0 size=N/A time=00:13:58.58 bitrate=N/A speed=2.98x    frame=20137 fps= 71 q=-0.0 size=N/A time=00:13:59.88 bitrate=N/A speed=2.98x    frame=20180 fps= 71 q=-0.0 size=N/A time=00:14:01.67 bitrate=N/A speed=2.98x    frame=20218 fps= 71 q=-0.0 size=N/A time=00:14:03.25 bitrate=N/A speed=2.98x    frame=20247 fps= 71 q=-0.0 size=N/A time=00:14:04.46 bitrate=N/A speed=2.98x    frame=20292 fps= 71 q=-0.0 size=N/A time=00:14:06.34 bitrate=N/A speed=2.98x    frame=20329 fps= 71 q=-0.0 size=N/A time=00:14:07.88 bitrate=N/A speed=2.98x    frame=20362 fps= 71 q=-0.0 size=N/A time=00:14:09.26 bitrate=N/A speed=2.98x    frame=20401 fps= 71 q=-0.0 size=N/A time=00:14:10.89 bitrate=N/A speed=2.98x    frame=20440 fps= 71 q=-0.0 size=N/A time=00:14:12.51 bitrate=N/A speed=2.98x    frame=20477 fps= 71 q=-0.0 size=N/A time=00:14:14.06 bitrate=N/A speed=2.98x    frame=20515 fps= 71 q=-0.0 size=N/A time=00:14:15.64 bitrate=N/A speed=2.98x    frame=20545 fps= 71 q=-0.0 size=N/A time=00:14:16.89 bitrate=N/A speed=2.98x    frame=20588 fps= 71 q=-0.0 size=N/A time=00:14:18.69 bitrate=N/A speed=2.98x    frame=20625 fps= 71 q=-0.0 size=N/A time=00:14:20.23 bitrate=N/A speed=2.98x    frame=20661 fps= 71 q=-0.0 size=N/A time=00:14:21.73 bitrate=N/A speed=2.98x    frame=20699 fps= 71 q=-0.0 size=N/A time=00:14:23.32 bitrate=N/A speed=2.98x    frame=20735 fps= 71 q=-0.0 size=N/A time=00:14:24.82 bitrate=N/A speed=2.98x    frame=20771 fps= 71 q=-0.0 size=N/A time=00:14:26.32 bitrate=N/A speed=2.98x    frame=20808 fps= 71 q=-0.0 size=N/A time=00:14:27.86 bitrate=N/A speed=2.98x    frame=20845 fps= 71 q=-0.0 size=N/A time=00:14:29.41 bitrate=N/A speed=2.98x    frame=20883 fps= 71 q=-0.0 size=N/A time=00:14:30.99 bitrate=N/A speed=2.98x    frame=20919 fps= 71 q=-0.0 size=N/A time=00:14:32.49 bitrate=N/A speed=2.98x    frame=20956 fps= 71 q=-0.0 size=N/A time=00:14:34.03 bitrate=N/A speed=2.98x    frame=20986 fps= 71 q=-0.0 size=N/A time=00:14:35.29 bitrate=N/A speed=2.98x    frame=21029 fps= 71 q=-0.0 size=N/A time=00:14:37.08 bitrate=N/A speed=2.98x    frame=21066 fps= 71 q=-0.0 size=N/A time=00:14:38.62 bitrate=N/A speed=2.98x    frame=21103 fps= 71 q=-0.0 size=N/A time=00:14:40.17 bitrate=N/A speed=2.98x    frame=21137 fps= 71 q=-0.0 size=N/A time=00:14:41.58 bitrate=N/A speed=2.98x    frame=21167 fps= 71 q=-0.0 size=N/A time=00:14:42.84 bitrate=N/A speed=2.98x    frame=21208 fps= 71 q=-0.0 size=N/A time=00:14:44.55 bitrate=N/A speed=2.98x    frame=21249 fps= 71 q=-0.0 size=N/A time=00:14:46.26 bitrate=N/A speed=2.98x    frame=21285 fps= 71 q=-0.0 size=N/A time=00:14:47.76 bitrate=N/A speed=2.98x    frame=21322 fps= 71 q=-0.0 size=N/A time=00:14:49.30 bitrate=N/A speed=2.98x    frame=21359 fps= 71 q=-0.0 size=N/A time=00:14:50.84 bitrate=N/A speed=2.98x    frame=21394 fps= 71 q=-0.0 size=N/A time=00:14:52.30 bitrate=N/A speed=2.98x    frame=21431 fps= 71 q=-0.0 size=N/A time=00:14:53.85 bitrate=N/A speed=2.98x    frame=21468 fps= 71 q=-0.0 size=N/A time=00:14:55.39 bitrate=N/A speed=2.98x    frame=21506 fps= 71 q=-0.0 size=N/A time=00:14:56.97 bitrate=N/A speed=2.98x    frame=21543 fps= 71 q=-0.0 size=N/A time=00:14:58.52 bitrate=N/A speed=2.98x    frame=21576 fps= 71 q=-0.0 size=N/A time=00:14:59.89 bitrate=N/A speed=2.98x    frame=21615 fps= 71 q=-0.0 size=N/A time=00:15:01.52 bitrate=N/A speed=2.98x    frame=21652 fps= 71 q=-0.0 size=N/A time=00:15:03.06 bitrate=N/A speed=2.98x    frame=21689 fps= 71 q=-0.0 size=N/A time=00:15:04.61 bitrate=N/A speed=2.98x    frame=21726 fps= 71 q=-0.0 size=N/A time=00:15:06.15 bitrate=N/A speed=2.98x    frame=21762 fps= 71 q=-0.0 size=N/A time=00:15:07.65 bitrate=N/A speed=2.98x    frame=21798 fps= 71 q=-0.0 size=N/A time=00:15:09.15 bitrate=N/A speed=2.98x    frame=21835 fps= 71 q=-0.0 size=N/A time=00:15:10.70 bitrate=N/A speed=2.98x    frame=21868 fps= 71 q=-0.0 size=N/A time=00:15:12.07 bitrate=N/A speed=2.98x    frame=21908 fps= 71 q=-0.0 size=N/A time=00:15:13.74 bitrate=N/A speed=2.98x    frame=21944 fps= 71 q=-0.0 size=N/A time=00:15:15.24 bitrate=N/A speed=2.98x    frame=21980 fps= 71 q=-0.0 size=N/A time=00:15:16.74 bitrate=N/A speed=2.98x    frame=22018 fps= 71 q=-0.0 size=N/A time=00:15:18.33 bitrate=N/A speed=2.98x    frame=22048 fps= 71 q=-0.0 size=N/A time=00:15:19.58 bitrate=N/A speed=2.98x    frame=22091 fps= 71 q=-0.0 size=N/A time=00:15:21.37 bitrate=N/A speed=2.98x    frame=22127 fps= 71 q=-0.0 size=N/A time=00:15:22.88 bitrate=N/A speed=2.98x    frame=22157 fps= 71 q=-0.0 size=N/A time=00:15:24.13 bitrate=N/A speed=2.98x    frame=22200 fps= 71 q=-0.0 size=N/A time=00:15:25.92 bitrate=N/A speed=2.98x    frame=22238 fps= 71 q=-0.0 size=N/A time=00:15:27.50 bitrate=N/A speed=2.98x    frame=22275 fps= 71 q=-0.0 size=N/A time=00:15:29.05 bitrate=N/A speed=2.98x    frame=22314 fps= 71 q=-0.0 size=N/A time=00:15:30.67 bitrate=N/A speed=2.98x    frame=22350 fps= 71 q=-0.0 size=N/A time=00:15:32.18 bitrate=N/A speed=2.98x    frame=22388 fps= 71 q=-0.0 size=N/A time=00:15:33.76 bitrate=N/A speed=2.98x    frame=22424 fps= 71 q=-0.0 size=N/A time=00:15:35.26 bitrate=N/A speed=2.98x    frame=22459 fps= 71 q=-0.0 size=N/A time=00:15:36.72 bitrate=N/A speed=2.98x    frame=22490 fps= 71 q=-0.0 size=N/A time=00:15:38.02 bitrate=N/A speed=2.98x    frame=22533 fps= 71 q=-0.0 size=N/A time=00:15:39.81 bitrate=N/A speed=2.98x    frame=22568 fps= 71 q=-0.0 size=N/A time=00:15:41.27 bitrate=N/A speed=2.98x    frame=22608 fps= 71 q=-0.0 size=N/A time=00:15:42.94 bitrate=N/A speed=2.98x    frame=22644 fps= 71 q=-0.0 size=N/A time=00:15:44.44 bitrate=N/A speed=2.98x    frame=22677 fps= 71 q=-0.0 size=N/A time=00:15:45.81 bitrate=N/A speed=2.98x    frame=22714 fps= 71 q=-0.0 size=N/A time=00:15:47.36 bitrate=N/A speed=2.98x    frame=22757 fps= 71 q=-0.0 size=N/A time=00:15:49.15 bitrate=N/A speed=2.98x    frame=22794 fps= 71 q=-0.0 size=N/A time=00:15:50.69 bitrate=N/A speed=2.98x    frame=22831 fps= 71 q=-0.0 size=N/A time=00:15:52.24 bitrate=N/A speed=2.98x    frame=22869 fps= 71 q=-0.0 size=N/A time=00:15:53.82 bitrate=N/A speed=2.98x    frame=22906 fps= 71 q=-0.0 size=N/A time=00:15:55.37 bitrate=N/A speed=2.98x    frame=22944 fps= 71 q=-0.0 size=N/A time=00:15:56.95 bitrate=N/A speed=2.98x    frame=22980 fps= 71 q=-0.0 size=N/A time=00:15:58.45 bitrate=N/A speed=2.98x    frame=23017 fps= 71 q=-0.0 size=N/A time=00:16:00.00 bitrate=N/A speed=2.98x    frame=23049 fps= 71 q=-0.0 size=N/A time=00:16:01.33 bitrate=N/A speed=2.98x    frame=23090 fps= 71 q=-0.0 size=N/A time=00:16:03.04 bitrate=N/A speed=2.98x    frame=23128 fps= 71 q=-0.0 size=N/A time=00:16:04.63 bitrate=N/A speed=2.98x    frame=23161 fps= 71 q=-0.0 size=N/A time=00:16:06.00 bitrate=N/A speed=2.98x    frame=23200 fps= 71 q=-0.0 size=N/A time=00:16:07.63 bitrate=N/A speed=2.98x    frame=23238 fps= 71 q=-0.0 size=N/A time=00:16:09.21 bitrate=N/A speed=2.98x    frame=23272 fps= 71 q=-0.0 size=N/A time=00:16:10.63 bitrate=N/A speed=2.98x    frame=23311 fps= 71 q=-0.0 size=N/A time=00:16:12.26 bitrate=N/A speed=2.98x    frame=23347 fps= 71 q=-0.0 size=N/A time=00:16:13.76 bitrate=N/A speed=2.98x    frame=23378 fps= 71 q=-0.0 size=N/A time=00:16:15.05 bitrate=N/A speed=2.98x    frame=23420 fps= 71 q=-0.0 size=N/A time=00:16:16.80 bitrate=N/A speed=2.98x    frame=23457 fps= 71 q=-0.0 size=N/A time=00:16:18.35 bitrate=N/A speed=2.98x    frame=23495 fps= 71 q=-0.0 size=N/A time=00:16:19.93 bitrate=N/A speed=2.98x    frame=23531 fps= 71 q=-0.0 size=N/A time=00:16:21.43 bitrate=N/A speed=2.98x    frame=23570 fps= 71 q=-0.0 size=N/A time=00:16:23.06 bitrate=N/A speed=2.98x    frame=23606 fps= 71 q=-0.0 size=N/A time=00:16:24.56 bitrate=N/A speed=2.98x    frame=23642 fps= 71 q=-0.0 size=N/A time=00:16:26.06 bitrate=N/A speed=2.98x    frame=23668 fps= 71 q=-0.0 size=N/A time=00:16:27.15 bitrate=N/A speed=2.98x    frame=23715 fps= 71 q=-0.0 size=N/A time=00:16:29.11 bitrate=N/A speed=2.98x    frame=23746 fps= 71 q=-0.0 size=N/A time=00:16:30.40 bitrate=N/A speed=2.98x    frame=23789 fps= 71 q=-0.0 size=N/A time=00:16:32.19 bitrate=N/A speed=2.98x    frame=23826 fps= 71 q=-0.0 size=N/A time=00:16:33.74 bitrate=N/A speed=2.98x    frame=23860 fps= 71 q=-0.0 size=N/A time=00:16:35.16 bitrate=N/A speed=2.98x    frame=23902 fps= 71 q=-0.0 size=N/A time=00:16:36.91 bitrate=N/A speed=2.98x    frame=23938 fps= 71 q=-0.0 size=N/A time=00:16:38.41 bitrate=N/A speed=2.98x    frame=23968 fps= 71 q=-0.0 size=N/A time=00:16:39.66 bitrate=N/A speed=2.98x    frame=24011 fps= 71 q=-0.0 size=N/A time=00:16:41.45 bitrate=N/A speed=2.98x    frame=24048 fps= 71 q=-0.0 size=N/A time=00:16:43.00 bitrate=N/A speed=2.98x    frame=24084 fps= 71 q=-0.0 size=N/A time=00:16:44.50 bitrate=N/A speed=2.98x    frame=24114 fps= 71 q=-0.0 size=N/A time=00:16:45.75 bitrate=N/A speed=2.98x    frame=24158 fps= 71 q=-0.0 size=N/A time=00:16:47.58 bitrate=N/A speed=2.98x    frame=24195 fps= 71 q=-0.0 size=N/A time=00:16:49.13 bitrate=N/A speed=2.98x    frame=24231 fps= 71 q=-0.0 size=N/A time=00:16:50.67 bitrate=N/A speed=2.98x    frame=24265 fps= 71 q=-0.0 size=N/A time=00:16:52.05 bitrate=N/A speed=2.98x    frame=24306 fps= 71 q=-0.0 size=N/A time=00:16:53.76 bitrate=N/A speed=2.98x    frame=24342 fps= 71 q=-0.0 size=N/A time=00:16:55.26 bitrate=N/A speed=2.98x    frame=24379 fps= 71 q=-0.0 size=N/A time=00:16:56.80 bitrate=N/A speed=2.98x    frame=24414 fps= 71 q=-0.0 size=N/A time=00:16:58.26 bitrate=N/A speed=2.98x    frame=24452 fps= 71 q=-0.0 size=N/A time=00:16:59.85 bitrate=N/A speed=2.98x    frame=24491 fps= 71 q=-0.0 size=N/A time=00:17:01.47 bitrate=N/A speed=2.98x    frame=24529 fps= 71 q=-0.0 size=N/A time=00:17:03.06 bitrate=N/A speed=2.98x    frame=24564 fps= 71 q=-0.0 size=N/A time=00:17:04.52 bitrate=N/A speed=2.98x    frame=24602 fps= 71 q=-0.0 size=N/A time=00:17:06.10 bitrate=N/A speed=2.98x    frame=24639 fps= 71 q=-0.0 size=N/A time=00:17:07.65 bitrate=N/A speed=2.98x    frame=24676 fps= 71 q=-0.0 size=N/A time=00:17:09.19 bitrate=N/A speed=2.98x    frame=24710 fps= 71 q=-0.0 size=N/A time=00:17:10.61 bitrate=N/A speed=2.98x    frame=24747 fps= 71 q=-0.0 size=N/A time=00:17:12.15 bitrate=N/A speed=2.98x    frame=24788 fps= 71 q=-0.0 size=N/A time=00:17:13.86 bitrate=N/A speed=2.98x    frame=24825 fps= 71 q=-0.0 size=N/A time=00:17:15.40 bitrate=N/A speed=2.98x    frame=24859 fps= 71 q=-0.0 size=N/A time=00:17:16.82 bitrate=N/A speed=2.98x    frame=24900 fps= 71 q=-0.0 size=N/A time=00:17:18.53 bitrate=N/A speed=2.98x    frame=24936 fps= 71 q=-0.0 size=N/A time=00:17:20.03 bitrate=N/A speed=2.98x    frame=24976 fps= 71 q=-0.0 size=N/A time=00:17:21.70 bitrate=N/A speed=2.98x    frame=25012 fps= 71 q=-0.0 size=N/A time=00:17:23.20 bitrate=N/A speed=2.98x    frame=25049 fps= 71 q=-0.0 size=N/A time=00:17:24.75 bitrate=N/A speed=2.98x    frame=25087 fps= 71 q=-0.0 size=N/A time=00:17:26.33 bitrate=N/A speed=2.98x    frame=25124 fps= 71 q=-0.0 size=N/A time=00:17:27.88 bitrate=N/A speed=2.98x    frame=25155 fps= 71 q=-0.0 size=N/A time=00:17:29.17 bitrate=N/A speed=2.98x    frame=25197 fps= 71 q=-0.0 size=N/A time=00:17:30.92 bitrate=N/A speed=2.98x    frame=25234 fps= 71 q=-0.0 size=N/A time=00:17:32.46 bitrate=N/A speed=2.98x    frame=25270 fps= 71 q=-0.0 size=N/A time=00:17:33.96 bitrate=N/A speed=2.98x    frame=25309 fps= 71 q=-0.0 size=N/A time=00:17:35.59 bitrate=N/A speed=2.98x    frame=25346 fps= 71 q=-0.0 size=N/A time=00:17:37.13 bitrate=N/A speed=2.98x    frame=25377 fps= 71 q=-0.0 size=N/A time=00:17:38.43 bitrate=N/A speed=2.98x    frame=25420 fps= 71 q=-0.0 size=N/A time=00:17:40.22 bitrate=N/A speed=2.98x    frame=25457 fps= 71 q=-0.0 size=N/A time=00:17:41.76 bitrate=N/A speed=2.98x    frame=25493 fps= 71 q=-0.0 size=N/A time=00:17:43.27 bitrate=N/A speed=2.98x    frame=25531 fps= 71 q=-0.0 size=N/A time=00:17:44.85 bitrate=N/A speed=2.98x    frame=25567 fps= 71 q=-0.0 size=N/A time=00:17:46.35 bitrate=N/A speed=2.98x    frame=25604 fps= 71 q=-0.0 size=N/A time=00:17:47.90 bitrate=N/A speed=2.98x    frame=25642 fps= 71 q=-0.0 size=N/A time=00:17:49.48 bitrate=N/A speed=2.98x    frame=25678 fps= 71 q=-0.0 size=N/A time=00:17:50.98 bitrate=N/A speed=2.98x    frame=25717 fps= 71 q=-0.0 size=N/A time=00:17:52.61 bitrate=N/A speed=2.98x    frame=25753 fps= 71 q=-0.0 size=N/A time=00:17:54.11 bitrate=N/A speed=2.98x    frame=25790 fps= 71 q=-0.0 size=N/A time=00:17:55.65 bitrate=N/A speed=2.98x    frame=25826 fps= 71 q=-0.0 size=N/A time=00:17:57.15 bitrate=N/A speed=2.98x    frame=25858 fps= 71 q=-0.0 size=N/A time=00:17:58.49 bitrate=N/A speed=2.98x    frame=25902 fps= 71 q=-0.0 size=N/A time=00:18:00.32 bitrate=N/A speed=2.98x    frame=25941 fps= 71 q=-0.0 size=N/A time=00:18:01.95 bitrate=N/A speed=2.98x    frame=25977 fps= 71 q=-0.0 size=N/A time=00:18:03.45 bitrate=N/A speed=2.98x    frame=26014 fps= 71 q=-0.0 size=N/A time=00:18:05.00 bitrate=N/A speed=2.98x    frame=26052 fps= 71 q=-0.0 size=N/A time=00:18:06.58 bitrate=N/A speed=2.98x    frame=26089 fps= 71 q=-0.0 size=N/A time=00:18:08.12 bitrate=N/A speed=2.98x    frame=26127 fps= 71 q=-0.0 size=N/A time=00:18:09.71 bitrate=N/A speed=2.98x    frame=26164 fps= 71 q=-0.0 size=N/A time=00:18:11.25 bitrate=N/A speed=2.98x    frame=26201 fps= 71 q=-0.0 size=N/A time=00:18:12.80 bitrate=N/A speed=2.98x    frame=26239 fps= 71 q=-0.0 size=N/A time=00:18:14.38 bitrate=N/A speed=2.98x    frame=26274 fps= 71 q=-0.0 size=N/A time=00:18:15.84 bitrate=N/A speed=2.98x    frame=26312 fps= 71 q=-0.0 size=N/A time=00:18:17.42 bitrate=N/A speed=2.98x    frame=26350 fps= 71 q=-0.0 size=N/A time=00:18:19.01 bitrate=N/A speed=2.98x    frame=26386 fps= 71 q=-0.0 size=N/A time=00:18:20.51 bitrate=N/A speed=2.98x    frame=26425 fps= 71 q=-0.0 size=N/A time=00:18:22.14 bitrate=N/A speed=2.98x    frame=26462 fps= 71 q=-0.0 size=N/A time=00:18:23.68 bitrate=N/A speed=2.98x    frame=26498 fps= 71 q=-0.0 size=N/A time=00:18:25.18 bitrate=N/A speed=2.98x    frame=26536 fps= 71 q=-0.0 size=N/A time=00:18:26.77 bitrate=N/A speed=2.98x    frame=26571 fps= 71 q=-0.0 size=N/A time=00:18:28.23 bitrate=N/A speed=2.98x    frame=26609 fps= 71 q=-0.0 size=N/A time=00:18:29.81 bitrate=N/A speed=2.98x    frame=26644 fps= 71 q=-0.0 size=N/A time=00:18:31.27 bitrate=N/A speed=2.98x    frame=26684 fps= 71 q=-0.0 size=N/A time=00:18:32.94 bitrate=N/A speed=2.98x    frame=26722 fps= 71 q=-0.0 size=N/A time=00:18:34.53 bitrate=N/A speed=2.98x    frame=26759 fps= 71 q=-0.0 size=N/A time=00:18:36.07 bitrate=N/A speed=2.98x    frame=26796 fps= 71 q=-0.0 size=N/A time=00:18:37.61 bitrate=N/A speed=2.98x    frame=26834 fps= 71 q=-0.0 size=N/A time=00:18:39.20 bitrate=N/A speed=2.98x    frame=26873 fps= 71 q=-0.0 size=N/A time=00:18:40.82 bitrate=N/A speed=2.98x    frame=26910 fps= 71 q=-0.0 size=N/A time=00:18:42.37 bitrate=N/A speed=2.98x    frame=26944 fps= 71 q=-0.0 size=N/A time=00:18:43.78 bitrate=N/A speed=2.98x    frame=26984 fps= 71 q=-0.0 size=N/A time=00:18:45.45 bitrate=N/A speed=2.98x    frame=27022 fps= 71 q=-0.0 size=N/A time=00:18:47.04 bitrate=N/A speed=2.98x    frame=27058 fps= 71 q=-0.0 size=N/A time=00:18:48.54 bitrate=N/A speed=2.98x    frame=27094 fps= 71 q=-0.0 size=N/A time=00:18:50.04 bitrate=N/A speed=2.98x    frame=27131 fps= 71 q=-0.0 size=N/A time=00:18:51.58 bitrate=N/A speed=2.98x    frame=27168 fps= 71 q=-0.0 size=N/A time=00:18:53.13 bitrate=N/A speed=2.98x    frame=27201 fps= 71 q=-0.0 size=N/A time=00:18:54.50 bitrate=N/A speed=2.98x    frame=27242 fps= 71 q=-0.0 size=N/A time=00:18:56.21 bitrate=N/A speed=2.98x    frame=27280 fps= 71 q=-0.0 size=N/A time=00:18:57.80 bitrate=N/A speed=2.98x    frame=27309 fps= 71 q=-0.0 size=N/A time=00:18:59.01 bitrate=N/A speed=2.98x    frame=27354 fps= 71 q=-0.0 size=N/A time=00:19:00.88 bitrate=N/A speed=2.98x    frame=27392 fps= 71 q=-0.0 size=N/A time=00:19:02.47 bitrate=N/A speed=2.98x    frame=27421 fps= 71 q=-0.0 size=N/A time=00:19:03.68 bitrate=N/A speed=2.98x    frame=27462 fps= 71 q=-0.0 size=N/A time=00:19:05.39 bitrate=N/A speed=2.98x    frame=27503 fps= 71 q=-0.0 size=N/A time=00:19:07.10 bitrate=N/A speed=2.98x    frame=27539 fps= 71 q=-0.0 size=N/A time=00:19:08.60 bitrate=N/A speed=2.98x    frame=27577 fps= 71 q=-0.0 size=N/A time=00:19:10.19 bitrate=N/A speed=2.98x    frame=27614 fps= 71 q=-0.0 size=N/A time=00:19:11.73 bitrate=N/A speed=2.98x    frame=27650 fps= 71 q=-0.0 size=N/A time=00:19:13.23 bitrate=N/A speed=2.98x    frame=27688 fps= 71 q=-0.0 size=N/A time=00:19:14.82 bitrate=N/A speed=2.98x    frame=27723 fps= 71 q=-0.0 size=N/A time=00:19:16.28 bitrate=N/A speed=2.98x    frame=27761 fps= 71 q=-0.0 size=N/A time=00:19:17.86 bitrate=N/A speed=2.98x    frame=27791 fps= 71 q=-0.0 size=N/A time=00:19:19.11 bitrate=N/A speed=2.98x    frame=27834 fps= 71 q=-0.0 size=N/A time=00:19:20.90 bitrate=N/A speed=2.98x    frame=27871 fps= 71 q=-0.0 size=N/A time=00:19:22.45 bitrate=N/A speed=2.98x    frame=27904 fps= 71 q=-0.0 size=N/A time=00:19:23.82 bitrate=N/A speed=2.98x    frame=27944 fps= 71 q=-0.0 size=N/A time=00:19:25.49 bitrate=N/A speed=2.98x    frame=27981 fps= 71 q=-0.0 size=N/A time=00:19:27.04 bitrate=N/A speed=2.98x    frame=28016 fps= 71 q=-0.0 size=N/A time=00:19:28.50 bitrate=N/A speed=2.98x    frame=28053 fps= 71 q=-0.0 size=N/A time=00:19:30.04 bitrate=N/A speed=2.98x    frame=28091 fps= 71 q=-0.0 size=N/A time=00:19:31.62 bitrate=N/A speed=2.98x    frame=28128 fps= 71 q=-0.0 size=N/A time=00:19:33.17 bitrate=N/A speed=2.98x    frame=28165 fps= 71 q=-0.0 size=N/A time=00:19:34.71 bitrate=N/A speed=2.98x    frame=28202 fps= 71 q=-0.0 size=N/A time=00:19:36.25 bitrate=N/A speed=2.98x    frame=28238 fps= 71 q=-0.0 size=N/A time=00:19:37.75 bitrate=N/A speed=2.98x    frame=28275 fps= 71 q=-0.0 size=N/A time=00:19:39.30 bitrate=N/A speed=2.98x    frame=28307 fps= 71 q=-0.0 size=N/A time=00:19:40.63 bitrate=N/A speed=2.98x    frame=28344 fps= 71 q=-0.0 size=N/A time=00:19:42.18 bitrate=N/A speed=2.98x    frame=28383 fps= 71 q=-0.0 size=N/A time=00:19:43.80 bitrate=N/A speed=2.98x    frame=28419 fps= 71 q=-0.0 size=N/A time=00:19:45.30 bitrate=N/A speed=2.98x    frame=28456 fps= 71 q=-0.0 size=N/A time=00:19:46.85 bitrate=N/A speed=2.98x    frame=28493 fps= 71 q=-0.0 size=N/A time=00:19:48.39 bitrate=N/A speed=2.98x    frame=28526 fps= 71 q=-0.0 size=N/A time=00:19:49.77 bitrate=N/A speed=2.98x    frame=28566 fps= 71 q=-0.0 size=N/A time=00:19:51.44 bitrate=N/A speed=2.98x    frame=28602 fps= 71 q=-0.0 size=N/A time=00:19:52.94 bitrate=N/A speed=2.98x    frame=28639 fps= 71 q=-0.0 size=N/A time=00:19:54.48 bitrate=N/A speed=2.98x    frame=28670 fps= 71 q=-0.0 size=N/A time=00:19:55.77 bitrate=N/A speed=2.98x    frame=28712 fps= 71 q=-0.0 size=N/A time=00:19:57.52 bitrate=N/A speed=2.98x    frame=28749 fps= 71 q=-0.0 size=N/A time=00:19:59.07 bitrate=N/A speed=2.98x    frame=28782 fps= 71 q=-0.0 size=N/A time=00:20:00.44 bitrate=N/A speed=2.98x    frame=28816 fps= 71 q=-0.0 size=N/A time=00:20:01.86 bitrate=N/A speed=2.98x    frame=28858 fps= 71 q=-0.0 size=N/A time=00:20:03.61 bitrate=N/A speed=2.98x    frame=28897 fps= 71 q=-0.0 size=N/A time=00:20:05.24 bitrate=N/A speed=2.98x    frame=28932 fps= 71 q=-0.0 size=N/A time=00:20:06.70 bitrate=N/A speed=2.98x    frame=28970 fps= 71 q=-0.0 size=N/A time=00:20:08.29 bitrate=N/A speed=2.98x    frame=29008 fps= 71 q=-0.0 size=N/A time=00:20:09.87 bitrate=N/A speed=2.98x    frame=29044 fps= 71 q=-0.0 size=N/A time=00:20:11.37 bitrate=N/A speed=2.98x    frame=29081 fps= 71 q=-0.0 size=N/A time=00:20:12.92 bitrate=N/A speed=2.98x    frame=29117 fps= 71 q=-0.0 size=N/A time=00:20:14.42 bitrate=N/A speed=2.98x    frame=29153 fps= 71 q=-0.0 size=N/A time=00:20:15.92 bitrate=N/A speed=2.98x    frame=29190 fps= 71 q=-0.0 size=N/A time=00:20:17.46 bitrate=N/A speed=2.98x    frame=29227 fps= 71 q=-0.0 size=N/A time=00:20:19.00 bitrate=N/A speed=2.98x    frame=29264 fps= 71 q=-0.0 size=N/A time=00:20:20.55 bitrate=N/A speed=2.98x    frame=29301 fps= 71 q=-0.0 size=N/A time=00:20:22.09 bitrate=N/A speed=2.98x    frame=29339 fps= 71 q=-0.0 size=N/A time=00:20:23.68 bitrate=N/A speed=2.98x    frame=29375 fps= 71 q=-0.0 size=N/A time=00:20:25.18 bitrate=N/A speed=2.98x    frame=29412 fps= 71 q=-0.0 size=N/A time=00:20:26.72 bitrate=N/A speed=2.98x    frame=29449 fps= 71 q=-0.0 size=N/A time=00:20:28.26 bitrate=N/A speed=2.98x    frame=29485 fps= 71 q=-0.0 size=N/A time=00:20:29.77 bitrate=N/A speed=2.98x    frame=29523 fps= 71 q=-0.0 size=N/A time=00:20:31.35 bitrate=N/A speed=2.98x    frame=29561 fps= 71 q=-0.0 size=N/A time=00:20:32.94 bitrate=N/A speed=2.98x    frame=29596 fps= 71 q=-0.0 size=N/A time=00:20:34.39 bitrate=N/A speed=2.98x    frame=29636 fps= 71 q=-0.0 size=N/A time=00:20:36.06 bitrate=N/A speed=2.98x    frame=29671 fps= 71 q=-0.0 size=N/A time=00:20:37.52 bitrate=N/A speed=2.98x    frame=29709 fps= 71 q=-0.0 size=N/A time=00:20:39.11 bitrate=N/A speed=2.98x    frame=29746 fps= 71 q=-0.0 size=N/A time=00:20:40.65 bitrate=N/A speed=2.98x    frame=29779 fps= 71 q=-0.0 size=N/A time=00:20:42.03 bitrate=N/A speed=2.98x    frame=29810 fps= 71 q=-0.0 size=N/A time=00:20:43.32 bitrate=N/A speed=2.98x    frame=29856 fps= 71 q=-0.0 size=N/A time=00:20:45.24 bitrate=N/A speed=2.98x    frame=29894 fps= 71 q=-0.0 size=N/A time=00:20:46.82 bitrate=N/A speed=2.98x    frame=29929 fps= 71 q=-0.0 size=N/A time=00:20:48.28 bitrate=N/A speed=2.98x    frame=29967 fps= 71 q=-0.0 size=N/A time=00:20:49.87 bitrate=N/A speed=2.98x    frame=30000 fps= 71 q=-0.0 size=N/A time=00:20:51.25 bitrate=N/A speed=2.98x    frame=30041 fps= 71 q=-0.0 size=N/A time=00:20:52.96 bitrate=N/A speed=2.98x    frame=30077 fps= 71 q=-0.0 size=N/A time=00:20:54.46 bitrate=N/A speed=2.98x    frame=30115 fps= 71 q=-0.0 size=N/A time=00:20:56.04 bitrate=N/A speed=2.98x    frame=30152 fps= 71 q=-0.0 size=N/A time=00:20:57.58 bitrate=N/A speed=2.98x    frame=30189 fps= 71 q=-0.0 size=N/A time=00:20:59.13 bitrate=N/A speed=2.98x    frame=30226 fps= 71 q=-0.0 size=N/A time=00:21:00.67 bitrate=N/A speed=2.98x    frame=30264 fps= 71 q=-0.0 size=N/A time=00:21:02.26 bitrate=N/A speed=2.98x    frame=30291 fps= 71 q=-0.0 size=N/A time=00:21:03.38 bitrate=N/A speed=2.98x    frame=30337 fps= 71 q=-0.0 size=N/A time=00:21:05.30 bitrate=N/A speed=2.98x    frame=30368 fps= 71 q=-0.0 size=N/A time=00:21:06.59 bitrate=N/A speed=2.98x    frame=30410 fps= 71 q=-0.0 size=N/A time=00:21:08.35 bitrate=N/A speed=2.98x    frame=30442 fps= 71 q=-0.0 size=N/A time=00:21:09.68 bitrate=N/A speed=2.98x    frame=30483 fps= 71 q=-0.0 size=N/A time=00:21:11.39 bitrate=N/A speed=2.98x    frame=30520 fps= 71 q=-0.0 size=N/A time=00:21:12.93 bitrate=N/A speed=2.98x    frame=30556 fps= 71 q=-0.0 size=N/A time=00:21:14.43 bitrate=N/A speed=2.98x    frame=30584 fps= 71 q=-0.0 size=N/A time=00:21:15.60 bitrate=N/A speed=2.98x    frame=30630 fps= 71 q=-0.0 size=N/A time=00:21:17.52 bitrate=N/A speed=2.98x    frame=30668 fps= 71 q=-0.0 size=N/A time=00:21:19.11 bitrate=N/A speed=2.98x    frame=30705 fps= 71 q=-0.0 size=N/A time=00:21:20.65 bitrate=N/A speed=2.98x    frame=30742 fps= 71 q=-0.0 size=N/A time=00:21:22.19 bitrate=N/A speed=2.98x    frame=30776 fps= 71 q=-0.0 size=N/A time=00:21:23.61 bitrate=N/A speed=2.98x    frame=30815 fps= 71 q=-0.0 size=N/A time=00:21:25.24 bitrate=N/A speed=2.98x    frame=30852 fps= 71 q=-0.0 size=N/A time=00:21:26.78 bitrate=N/A speed=2.98x    frame=30885 fps= 71 q=-0.0 size=N/A time=00:21:28.16 bitrate=N/A speed=2.98x    frame=30913 fps= 71 q=-0.0 size=N/A time=00:21:29.32 bitrate=N/A speed=2.98x    frame=30961 fps= 71 q=-0.0 size=N/A time=00:21:31.33 bitrate=N/A speed=2.98x    frame=31000 fps= 71 q=-0.0 size=N/A time=00:21:32.95 bitrate=N/A speed=2.98x    frame=31034 fps= 71 q=-0.0 size=N/A time=00:21:34.37 bitrate=N/A speed=2.98x    frame=31073 fps= 71 q=-0.0 size=N/A time=00:21:36.00 bitrate=N/A speed=2.98x    frame=31112 fps= 71 q=-0.0 size=N/A time=00:21:37.62 bitrate=N/A speed=2.98x    frame=31144 fps= 71 q=-0.0 size=N/A time=00:21:38.96 bitrate=N/A speed=2.98x    frame=31185 fps= 71 q=-0.0 size=N/A time=00:21:40.67 bitrate=N/A speed=2.98x    frame=31223 fps= 71 q=-0.0 size=N/A time=00:21:42.25 bitrate=N/A speed=2.98x    frame=31254 fps= 71 q=-0.0 size=N/A time=00:21:43.55 bitrate=N/A speed=2.98x    frame=31295 fps= 71 q=-0.0 size=N/A time=00:21:45.26 bitrate=N/A speed=2.98x    frame=31334 fps= 71 q=-0.0 size=N/A time=00:21:46.88 bitrate=N/A speed=2.98x    frame=31370 fps= 71 q=-0.0 size=N/A time=00:21:48.39 bitrate=N/A speed=2.98x    frame=31407 fps= 71 q=-0.0 size=N/A time=00:21:49.93 bitrate=N/A speed=2.98x    frame=31444 fps= 71 q=-0.0 size=N/A time=00:21:51.47 bitrate=N/A speed=2.98x    frame=31480 fps= 71 q=-0.0 size=N/A time=00:21:52.97 bitrate=N/A speed=2.98x    frame=31518 fps= 71 q=-0.0 size=N/A time=00:21:54.56 bitrate=N/A speed=2.98x    frame=31557 fps= 71 q=-0.0 size=N/A time=00:21:56.18 bitrate=N/A speed=2.98x    frame=31593 fps= 71 q=-0.0 size=N/A time=00:21:57.69 bitrate=N/A speed=2.98x    frame=31631 fps= 71 q=-0.0 size=N/A time=00:21:59.27 bitrate=N/A speed=2.98x    frame=31662 fps= 71 q=-0.0 size=N/A time=00:22:00.56 bitrate=N/A speed=2.98x    frame=31704 fps= 71 q=-0.0 size=N/A time=00:22:02.32 bitrate=N/A speed=2.98x    frame=31742 fps= 71 q=-0.0 size=N/A time=00:22:03.90 bitrate=N/A speed=2.98x    frame=31780 fps= 71 q=-0.0 size=N/A time=00:22:05.49 bitrate=N/A speed=2.98x    frame=31818 fps= 71 q=-0.0 size=N/A time=00:22:07.07 bitrate=N/A speed=2.98x    frame=31854 fps= 71 q=-0.0 size=N/A time=00:22:08.57 bitrate=N/A speed=2.98x    frame=31892 fps= 71 q=-0.0 size=N/A time=00:22:10.16 bitrate=N/A speed=2.98x    frame=31929 fps= 71 q=-0.0 size=N/A time=00:22:11.70 bitrate=N/A speed=2.98x    frame=31960 fps= 71 q=-0.0 size=N/A time=00:22:12.99 bitrate=N/A speed=2.98x    frame=32002 fps= 71 q=-0.0 size=N/A time=00:22:14.75 bitrate=N/A speed=2.98x    frame=32043 fps= 71 q=-0.0 size=N/A time=00:22:16.46 bitrate=N/A speed=2.98x    frame=32079 fps= 71 q=-0.0 size=N/A time=00:22:17.96 bitrate=N/A speed=2.98x    frame=32117 fps= 71 q=-0.0 size=N/A time=00:22:19.54 bitrate=N/A speed=2.98x    frame=32152 fps= 71 q=-0.0 size=N/A time=00:22:21.00 bitrate=N/A speed=2.98x    frame=32191 fps= 71 q=-0.0 size=N/A time=00:22:22.63 bitrate=N/A speed=2.98x    frame=32228 fps= 71 q=-0.0 size=N/A time=00:22:24.17 bitrate=N/A speed=2.98x    frame=32264 fps= 71 q=-0.0 size=N/A time=00:22:25.67 bitrate=N/A speed=2.98x    frame=32303 fps= 71 q=-0.0 size=N/A time=00:22:27.30 bitrate=N/A speed=2.98x    frame=32339 fps= 71 q=-0.0 size=N/A time=00:22:28.80 bitrate=N/A speed=2.98x    frame=32377 fps= 71 q=-0.0 size=N/A time=00:22:30.39 bitrate=N/A speed=2.98x    frame=32408 fps= 71 q=-0.0 size=N/A time=00:22:31.68 bitrate=N/A speed=2.98x    frame=32449 fps= 71 q=-0.0 size=N/A time=00:22:33.39 bitrate=N/A speed=2.98x    frame=32489 fps= 71 q=-0.0 size=N/A time=00:22:35.06 bitrate=N/A speed=2.98x    frame=32519 fps= 71 q=-0.0 size=N/A time=00:22:36.31 bitrate=N/A speed=2.98x    frame=32562 fps= 71 q=-0.0 size=N/A time=00:22:38.10 bitrate=N/A speed=2.98x    frame=32599 fps= 71 q=-0.0 size=N/A time=00:22:39.64 bitrate=N/A speed=2.98x    frame=32631 fps= 71 q=-0.0 size=N/A time=00:22:40.98 bitrate=N/A speed=2.98x    frame=32672 fps= 71 q=-0.0 size=N/A time=00:22:42.69 bitrate=N/A speed=2.98x    frame=32710 fps= 71 q=-0.0 size=N/A time=00:22:44.27 bitrate=N/A speed=2.98x    frame=32747 fps= 71 q=-0.0 size=N/A time=00:22:45.82 bitrate=N/A speed=2.98x    frame=32785 fps= 71 q=-0.0 size=N/A time=00:22:47.40 bitrate=N/A speed=2.98x    frame=32817 fps= 71 q=-0.0 size=N/A time=00:22:48.74 bitrate=N/A speed=2.98x    frame=32858 fps= 71 q=-0.0 size=N/A time=00:22:50.45 bitrate=N/A speed=2.98x    frame=32897 fps= 71 q=-0.0 size=N/A time=00:22:52.07 bitrate=N/A speed=2.98x    frame=32927 fps= 71 q=-0.0 size=N/A time=00:22:53.33 bitrate=N/A speed=2.98x    frame=32969 fps= 71 q=-0.0 size=N/A time=00:22:55.08 bitrate=N/A speed=2.98x    frame=33007 fps= 71 q=-0.0 size=N/A time=00:22:56.66 bitrate=N/A speed=2.98x    frame=33039 fps= 71 q=-0.0 size=N/A time=00:22:58.00 bitrate=N/A speed=2.98x    frame=33080 fps= 71 q=-0.0 size=N/A time=00:22:59.71 bitrate=N/A speed=2.98x    frame=33118 fps= 71 q=-0.0 size=N/A time=00:23:01.29 bitrate=N/A speed=2.98x    frame=33151 fps= 71 q=-0.0 size=N/A time=00:23:02.67 bitrate=N/A speed=2.98x    frame=33192 fps= 71 q=-0.0 size=N/A time=00:23:04.38 bitrate=N/A speed=2.98x    frame=33229 fps= 71 q=-0.0 size=N/A time=00:23:05.92 bitrate=N/A speed=2.98x    frame=33263 fps= 71 q=-0.0 size=N/A time=00:23:07.34 bitrate=N/A speed=2.98x    frame=33303 fps= 71 q=-0.0 size=N/A time=00:23:09.01 bitrate=N/A speed=2.98x    frame=33340 fps= 71 q=-0.0 size=N/A time=00:23:10.55 bitrate=N/A speed=2.98x    frame=33375 fps= 71 q=-0.0 size=N/A time=00:23:12.01 bitrate=N/A speed=2.98x    frame=33414 fps= 71 q=-0.0 size=N/A time=00:23:13.64 bitrate=N/A speed=2.98x    frame=33450 fps= 71 q=-0.0 size=N/A time=00:23:15.14 bitrate=N/A speed=2.98x    frame=33486 fps= 71 q=-0.0 size=N/A time=00:23:16.64 bitrate=N/A speed=2.98x    frame=33526 fps= 71 q=-0.0 size=N/A time=00:23:18.31 bitrate=N/A speed=2.98x    frame=33557 fps= 71 q=-0.0 size=N/A time=00:23:19.60 bitrate=N/A speed=2.98x    frame=33598 fps= 71 q=-0.0 size=N/A time=00:23:21.31 bitrate=N/A speed=2.98x    frame=33636 fps= 71 q=-0.0 size=N/A time=00:23:22.90 bitrate=N/A speed=2.98x    frame=33673 fps= 71 q=-0.0 size=N/A time=00:23:24.44 bitrate=N/A speed=2.98x    frame=33710 fps= 71 q=-0.0 size=N/A time=00:23:25.98 bitrate=N/A speed=2.98x    frame=33748 fps= 71 q=-0.0 size=N/A time=00:23:27.57 bitrate=N/A speed=2.98x    frame=33778 fps= 71 q=-0.0 size=N/A time=00:23:28.82 bitrate=N/A speed=2.98x    frame=33820 fps= 71 q=-0.0 size=N/A time=00:23:30.57 bitrate=N/A speed=2.98x    frame=33858 fps= 71 q=-0.0 size=N/A time=00:23:32.16 bitrate=N/A speed=2.98x    frame=33890 fps= 71 q=-0.0 size=N/A time=00:23:33.49 bitrate=N/A speed=2.98x    frame=33932 fps= 71 q=-0.0 size=N/A time=00:23:35.24 bitrate=N/A speed=2.98x    frame=33967 fps= 71 q=-0.0 size=N/A time=00:23:36.70 bitrate=N/A speed=2.98x    frame=34004 fps= 71 q=-0.0 size=N/A time=00:23:38.25 bitrate=N/A speed=2.98x    frame=34039 fps= 71 q=-0.0 size=N/A time=00:23:39.70 bitrate=N/A speed=2.98x    frame=34078 fps= 71 q=-0.0 size=N/A time=00:23:41.33 bitrate=N/A speed=2.98x    frame=34115 fps= 71 q=-0.0 size=N/A time=00:23:42.87 bitrate=N/A speed=2.98x    frame=34151 fps= 71 q=-0.0 size=N/A time=00:23:44.38 bitrate=N/A speed=2.98x    frame=34186 fps= 71 q=-0.0 size=N/A time=00:23:45.84 bitrate=N/A speed=2.98x    frame=34227 fps= 71 q=-0.0 size=N/A time=00:23:47.55 bitrate=N/A speed=2.98x    frame=34264 fps= 71 q=-0.0 size=N/A time=00:23:49.09 bitrate=N/A speed=2.98x    frame=34302 fps= 71 q=-0.0 size=N/A time=00:23:50.67 bitrate=N/A speed=2.98x    frame=34339 fps= 71 q=-0.0 size=N/A time=00:23:52.22 bitrate=N/A speed=2.98x    frame=34368 fps= 71 q=-0.0 size=N/A time=00:23:53.43 bitrate=N/A speed=2.98x    frame=34411 fps= 71 q=-0.0 size=N/A time=00:23:55.22 bitrate=N/A speed=2.98x    frame=34446 fps= 71 q=-0.0 size=N/A time=00:23:56.68 bitrate=N/A speed=2.98x    frame=34484 fps= 71 q=-0.0 size=N/A time=00:23:58.27 bitrate=N/A speed=2.98x    frame=34519 fps= 71 q=-0.0 size=N/A time=00:23:59.72 bitrate=N/A speed=2.98x    frame=34555 fps= 71 q=-0.0 size=N/A time=00:24:01.23 bitrate=N/A speed=2.98x    frame=34591 fps= 71 q=-0.0 size=N/A time=00:24:02.73 bitrate=N/A speed=2.98x    frame=34629 fps= 71 q=-0.0 size=N/A time=00:24:04.31 bitrate=N/A speed=2.98x    frame=34666 fps= 71 q=-0.0 size=N/A time=00:24:05.86 bitrate=N/A speed=2.98x    frame=34703 fps= 71 q=-0.0 size=N/A time=00:24:07.40 bitrate=N/A speed=2.98x    frame=34740 fps= 71 q=-0.0 size=N/A time=00:24:08.94 bitrate=N/A speed=2.98x    frame=34775 fps= 71 q=-0.0 size=N/A time=00:24:10.40 bitrate=N/A speed=2.98x    frame=34814 fps= 71 q=-0.0 size=N/A time=00:24:12.03 bitrate=N/A speed=2.98x    frame=34849 fps= 71 q=-0.0 size=N/A time=00:24:13.49 bitrate=N/A speed=2.98x    frame=34886 fps= 71 q=-0.0 size=N/A time=00:24:15.03 bitrate=N/A speed=2.98x    frame=34919 fps= 71 q=-0.0 size=N/A time=00:24:16.41 bitrate=N/A speed=2.98x    frame=34960 fps= 71 q=-0.0 size=N/A time=00:24:18.12 bitrate=N/A speed=2.98x    frame=34998 fps= 71 q=-0.0 size=N/A time=00:24:19.70 bitrate=N/A speed=2.98x    frame=35034 fps= 71 q=-0.0 size=N/A time=00:24:21.20 bitrate=N/A speed=2.98x    [Parsed_ssim_14 @ 0000012e843a89c0] SSIM Y:0.992531 (21.267501) U:0.993402 (21.805990) V:0.993172 (21.657280) All:0.992783 (21.416571)
[out#0/null @ 0000012eeee86ec0] video:15063KiB audio:274156KiB subtitle:0KiB other streams:0KiB global headers:0KiB muxing overhead: unknown
frame=35056 fps= 71 q=-0.0 Lsize=N/A time=00:24:22.12 bitrate=N/A speed=2.98x    
